<svg width="453.939453125px" height="129.2px" xmlns="http://www.w3.org/2000/svg" viewBox="23.0302734375 10.400000000000006 453.939453125 129.2" style="background: rgb(255, 255, 255);" preserveAspectRatio="xMidYMid"><defs><linearGradient id="editing-glowing-gradient" x1="0" x2="1" y1="0.5" y2="0.5"><stop offset="0" stop-color="#000000"></stop><stop offset="1" stop-color="#000000"></stop></linearGradient><filter id="editing-glowing" x="-100%" y="-100%" width="300%" height="300%"><feGaussianBlur in="SourceGraphic" result="blur" stdDeviation="1"></feGaussianBlur><feMerge><feMergeNode in="blur"></feMergeNode><feMergeNode in="SourceGraphic"></feMergeNode></feMerge></filter></defs><g filter="url(#editing-glowing)"><g transform="translate(91.74847841262817, 97.97500038146973)"><path d="M27.07-2.62L27.07-2.62L27.07-2.62Q25.54-0.26 25.54 0.45L25.54 0.45L25.54 0.45Q25.54 1.15 26.11 1.47L26.11 1.47L26.11 1.47Q26.11 1.54 24.96 2.43L24.96 2.43L24.96 2.43Q23.94 2.94 22.66 2.94L22.66 2.94L22.66 2.94Q21.38 2.94 20.80 2.66L20.80 2.66L20.80 2.66Q20.22 2.37 20.42 1.73L20.42 1.73L20.42 1.73Q21.31-1.15 27.14-9.82L27.14-9.82L27.14-9.82Q32.96-18.50 34.94-22.08L34.94-22.08L34.94-22.08Q39.23-29.82 39.23-34.43L39.23-34.43L39.23-34.43Q39.23-36.35 38.59-37.70L38.59-37.70L38.59-37.70Q37.31-40.32 32.51-40.32L32.51-40.32L32.51-40.32Q25.02-40.32 17.02-33.86L17.02-33.86L17.02-33.86Q10.62-28.67 7.23-22.88L7.23-22.88L7.23-22.88Q3.84-17.09 3.84-12.54L3.84-12.54L3.84-12.54Q3.84-6.02 9.60-5.89L9.60-5.89L9.60-5.89Q9.86-5.89 10.11-5.89L10.11-5.89L10.11-5.89Q17.47-5.89 21.50-11.20L21.50-11.20L21.50-11.20Q23.04-13.31 23.04-14.78L23.04-14.78L23.04-14.78Q23.04-16.26 22.40-16.64L22.40-16.64L22.40-16.64Q22.34-16.70 22.34-16.90L22.34-16.90L22.34-16.90Q22.34-17.09 22.72-17.09L22.72-17.09L22.72-17.09Q24.38-17.09 24.38-14.91L24.38-14.91L24.38-14.91Q24.38-13.57 23.07-11.26L23.07-11.26L23.07-11.26Q21.76-8.96 18.43-6.91L18.43-6.91L18.43-6.91Q15.10-4.86 10.69-4.86L10.69-4.86L10.69-4.86Q6.27-4.86 3.65-7.62L3.65-7.62L3.65-7.62Q1.02-10.37 1.02-14.85L1.02-14.85L1.02-14.85Q1.02-24.96 14.21-35.52L14.21-35.52L14.21-35.52Q17.60-38.21 23.14-39.94L23.14-39.94L23.14-39.94Q28.67-41.66 33.73-41.66L33.73-41.66L33.73-41.66Q38.78-41.66 40.61-39.90L40.61-39.90L40.61-39.90Q42.43-38.14 42.43-35.20L42.43-35.20L42.43-35.20Q42.43-30.72 38.78-23.10L38.78-23.10L38.78-23.10Q37.63-20.74 33.60-14.46L33.60-14.46L38.53-20.74L38.53-20.74Q42.11-25.41 50.94-34.05L50.94-34.05L50.94-34.05Q52.86-35.90 55.20-37.15L55.20-37.15L55.20-37.15Q57.54-38.40 59.20-38.40L59.20-38.40L59.20-38.40Q61.50-38.40 61.50-35.97L61.50-35.97L61.50-35.97Q61.50-33.86 59.49-29.60L59.49-29.60L59.49-29.60Q57.47-25.34 55.42-21.54L55.42-21.54L55.42-21.54Q53.38-17.73 52.93-16.54L52.93-16.54L52.93-16.54Q52.48-15.36 52.29-14.66L52.29-14.66L52.29-14.66Q52.10-13.95 52.03-13.89L52.03-13.89L52.03-13.89Q52.22-14.21 56.26-18.78L56.26-18.78L56.26-18.78Q60.29-23.36 68.16-30.21L68.16-30.21L78.40-38.66L78.40-38.66Q79.62-39.68 80.58-39.68L80.58-39.68L80.58-39.68Q81.54-39.68 82.14-38.08L82.14-38.08L82.14-38.08Q82.75-36.48 82.75-35.49L82.75-35.49L82.75-35.49Q82.75-34.50 79.68-31.36L79.68-31.36L79.68-31.36Q71.68-23.17 66.11-13.44L66.11-13.44L66.11-13.44Q60.54-3.71 60.54 0.45L60.54 0.45L60.54 0.45Q60.54 1.54 60.93 1.95L60.93 1.95L60.93 1.95Q61.31 2.37 62.14 2.21L62.14 2.21L62.14 2.21Q62.98 2.05 65.63 0.90L65.63 0.90L65.63 0.90Q68.29-0.26 69.12-0.45L69.12-0.45L69.12-0.45Q69.44-0.32 69.44-0.13L69.44-0.13L69.44-0.13Q69.44 0.83 66.08 2.56L66.08 2.56L66.08 2.56Q62.72 4.29 61.02 4.29L61.02 4.29L61.02 4.29Q59.33 4.29 58.94 3.71L58.94 3.71L58.94 3.71Q57.79 2.05 57.79-0.32L57.79-0.32L57.79-0.32Q57.79-5.82 63.68-16.13L63.68-16.13L63.68-16.13Q67.46-22.59 75.33-33.54L75.33-33.54L75.33-33.54Q69.18-28.54 58.69-18.24L58.69-18.24L58.69-18.24Q48.19-7.94 44.93-2.11L44.93-2.11L44.93-2.11Q43.26 0.90 40.90 0.90L40.90 0.90L40.90 0.90Q39.81 0.90 39.81 0.13L39.81 0.13L39.81 0.13Q39.81-0.13 41.12-2.18L41.12-2.18L41.12-2.18Q42.43-4.22 46.91-11.78L46.91-11.78L46.91-11.78Q57.92-30.91 57.92-34.82L57.92-34.82L57.92-34.82Q57.92-35.84 57.22-35.84L57.22-35.84L57.22-35.84Q56.19-35.84 54.21-34.11L54.21-34.11L54.21-34.11Q47.10-28.16 39.10-18.56L39.10-18.56L39.10-18.56Q31.10-8.96 27.07-2.62ZM75.97 0.83L75.97 0.83L75.97 0.83Q75.26 0.83 74.69 0.64L74.69 0.64L74.69 0.64Q70.59-0.51 70.59-3.97L70.59-3.97L70.59-3.97Q70.59-8.45 76.22-14.34L76.22-14.34L76.22-14.34Q81.86-20.22 86.34-20.22L86.34-20.22L86.34-20.22Q87.81-20.22 88.74-19.42L88.74-19.42L88.74-19.42Q89.66-18.62 89.66-17.47L89.66-17.47L89.66-17.47Q89.66-13.89 84.26-10.62L84.26-10.62L84.26-10.62Q78.85-7.36 75.46-7.36L75.46-7.36L75.46-7.36Q74.94-7.36 74.56-7.49L74.56-7.49L74.56-7.49Q73.60-5.76 73.60-3.84L73.60-3.84L73.60-3.84Q73.60-0.51 76.77-0.51L76.77-0.51L76.77-0.51Q79.94-0.51 84.99-4.80L84.99-4.80L84.99-4.80Q88.90-7.94 91.65-11.46L91.65-11.46L91.65-11.46Q92.22-12.22 92.64-12.22L92.64-12.22L92.64-12.22Q93.06-12.22 93.06-11.84L93.06-11.84L93.06-11.84Q93.06-11.46 92.54-10.75L92.54-10.75L92.54-10.75Q89.09-6.21 84.22-2.69L84.22-2.69L84.22-2.69Q79.36 0.83 75.97 0.83ZM88.06-17.60L88.06-17.60L88.06-17.60Q88.06-18.37 86.43-18.37L86.43-18.37L86.43-18.37Q84.80-18.37 81.79-15.87L81.79-15.87L81.79-15.87Q77.76-12.54 75.52-8.90L75.52-8.90L75.52-8.90Q75.90-8.77 76.35-8.77L76.35-8.77L76.35-8.77Q78.78-8.77 82.85-11.36L82.85-11.36L82.85-11.36Q86.91-13.95 87.94-17.02L87.94-17.02L87.94-17.02Q88.06-17.34 88.06-17.60ZM91.65-3.20L91.65-3.20L91.65-3.20Q91.65-1.28 93.76-1.28L93.76-1.28L93.76-1.28Q95.87-1.28 99.20-3.52L99.20-3.52L99.20-3.52Q102.53-5.76 105.66-9.60L105.66-9.60L105.66-9.60Q106.43-10.62 106.88-10.62L106.88-10.62L106.88-10.62Q107.33-10.62 107.33-10.24L107.33-10.24L107.33-10.24Q107.33-9.86 104.70-6.91L104.70-6.91L104.70-6.91Q98.30 0.13 94.02 0.13L94.02 0.13L94.02 0.13Q91.90 0.13 90.43-0.86L90.43-0.86L90.43-0.86Q88.96-1.86 88.96-3.94L88.96-3.94L88.96-3.94Q88.96-6.02 90.05-8.77L90.05-8.77L90.05-8.77Q91.90-13.12 96.00-19.71L96.00-19.71L96.00-19.71Q103.49-31.87 106.62-31.87L106.62-31.87L106.62-31.87Q107.26-31.87 107.94-31.39L107.94-31.39L107.94-31.39Q108.61-30.91 108.67-30.34L108.67-30.34L108.67-30.34Q107.20-28.35 103.01-22.72L103.01-22.72L103.01-22.72Q98.82-17.09 97.22-14.62L97.22-14.62L97.22-14.62Q95.62-12.16 94.82-10.94L94.82-10.94L94.82-10.94Q94.02-9.73 93.63-9.06L93.63-9.06L93.63-9.06Q93.25-8.38 92.74-7.30L92.74-7.30L92.74-7.30Q91.65-5.12 91.65-3.20ZM118.59-26.11L118.59-26.11Q119.55-26.11 120.42-25.50L120.42-25.50L120.42-25.50Q121.28-24.90 121.28-24.06L121.28-24.06L121.28-24.06Q121.28-23.23 120.48-22.62L120.48-22.62L120.48-22.62Q119.68-22.02 118.72-22.02L118.72-22.02L118.72-22.02Q117.76-22.02 116.96-22.72L116.96-22.72L116.96-22.72Q116.16-23.42 116.16-24.32L116.16-24.32L116.16-24.32Q116.16-26.11 118.59-26.11L118.59-26.11ZM107.01 0.70L107.01 0.70L107.01 0.70Q103.74 0.70 103.74-3.52L103.74-3.52L103.74-3.52Q103.74-6.98 107.52-13.09L107.52-13.09L107.52-13.09Q111.30-19.20 113.60-19.26L113.60-19.26L113.60-19.26Q114.24-19.26 115.04-18.75L115.04-18.75L115.04-18.75Q115.84-18.24 115.84-17.73L115.84-17.73L115.84-17.73Q115.52-17.28 115.07-16.74L115.07-16.74L115.07-16.74Q114.62-16.19 114.11-15.55L114.11-15.55L114.11-15.55Q113.60-14.91 112.70-13.73L112.70-13.73L112.70-13.73Q111.81-12.54 110.98-11.46L110.98-11.46L110.98-11.46Q106.18-5.25 106.18-2.91L106.18-2.91L106.18-2.91Q106.18-0.58 107.78-0.58L107.78-0.58L107.78-0.58Q109.12-0.58 111.42-2.05L111.42-2.05L111.42-2.05Q116.80-5.38 119.94-9.34L119.94-9.34L119.94-9.34Q121.09-10.82 121.50-10.82L121.50-10.82L121.50-10.82Q121.92-10.82 121.92-10.30L121.92-10.30L121.92-10.30Q121.92-9.79 120.45-8.26L120.45-8.26L120.45-8.26Q118.98-6.72 118.11-5.82L118.11-5.82L118.11-5.82Q117.25-4.93 116.93-4.64L116.93-4.64L116.93-4.64Q116.61-4.35 115.74-3.55L115.74-3.55L115.74-3.55Q114.88-2.75 114.43-2.43L114.43-2.43L114.43-2.43Q113.98-2.11 113.15-1.47L113.15-1.47L113.15-1.47Q112.32-0.83 111.68-0.54L111.68-0.54L111.68-0.54Q111.04-0.26 110.21 0.13L110.21 0.13L110.21 0.13Q108.86 0.70 107.01 0.70ZM132.99-2.30L130.94-0.96L130.94-0.96Q129.09 0.13 126.37 0.13L126.37 0.13L126.37 0.13Q123.65 0.13 122.21-1.66L122.21-1.66L122.21-1.66Q120.77-3.46 119.74-7.36L119.74-7.36L119.74-7.36Q118.59-6.21 118.14-6.21L118.14-6.21L118.14-6.21Q117.82-6.21 117.82-6.66L117.82-6.66L117.82-6.66Q117.82-7.10 118.14-7.42L118.14-7.42L118.14-7.42Q120.26-10.05 125.31-14.98L125.31-14.98L133.38-22.53L133.38-22.53Q136.83-25.79 137.47-25.79L137.47-25.79L137.47-25.79Q139.52-25.79 139.52-24.26L139.52-24.26L139.52-24.26Q139.52-23.49 138.91-22.75L138.91-22.75L138.91-22.75Q138.30-22.02 138.02-21.60L138.02-21.60L138.02-21.60Q137.73-21.18 137.41-20.80L137.41-20.80L137.41-20.80Q136.26-18.82 135.07-12.61L135.07-12.61L135.07-12.61Q133.89-6.40 133.25-3.97L133.25-3.97L133.25-3.97Q138.56-4.03 144.19-10.88L144.19-10.88L144.19-10.88Q144.83-11.52 145.15-11.52L145.15-11.52L145.15-11.52Q145.47-11.52 145.47-11.10L145.47-11.10L145.47-11.10Q145.47-10.69 144.90-9.98L144.90-9.98L144.90-9.98Q141.18-5.63 137.98-3.90L137.98-3.90L137.98-3.90Q136.06-2.94 132.99-2.30L132.99-2.30ZM122.30-8.06L122.30-8.06L122.30-8.06Q122.30-5.89 123.74-4.51L123.74-4.51L123.74-4.51Q125.18-3.14 126.98-3.14L126.98-3.14L126.98-3.14Q128.77-3.14 129.73-3.84L129.73-3.84L129.73-3.84Q131.01-4.54 132.26-9.73L132.26-9.73L132.26-9.73Q133.50-14.91 133.76-18.88L133.76-18.88L134.02-21.06L134.02-21.06Q130.50-18.43 126.50-14.27L126.50-14.27L126.50-14.27Q122.50-10.11 122.37-8.77L122.37-8.77L122.37-8.77Q122.30-8.38 122.30-8.06ZM155.97-2.30L153.92-0.96L153.92-0.96Q152.06 0.13 149.34 0.13L149.34 0.13L149.34 0.13Q146.62 0.13 145.18-1.66L145.18-1.66L145.18-1.66Q143.74-3.46 142.72-7.36L142.72-7.36L142.72-7.36Q141.57-6.21 141.12-6.21L141.12-6.21L141.12-6.21Q140.80-6.21 140.80-6.66L140.80-6.66L140.80-6.66Q140.80-7.10 141.12-7.42L141.12-7.42L141.12-7.42Q143.23-10.05 148.29-14.98L148.29-14.98L156.35-22.53L156.35-22.53Q159.81-25.79 160.45-25.79L160.45-25.79L160.45-25.79Q162.50-25.79 162.50-24.26L162.50-24.26L162.50-24.26Q162.50-23.49 161.89-22.75L161.89-22.75L161.89-22.75Q161.28-22.02 160.99-21.60L160.99-21.60L160.99-21.60Q160.70-21.18 160.38-20.80L160.38-20.80L160.38-20.80Q159.23-18.82 158.05-12.61L158.05-12.61L158.05-12.61Q156.86-6.40 156.22-3.97L156.22-3.97L156.22-3.97Q161.54-4.03 167.17-10.88L167.17-10.88L167.17-10.88Q167.81-11.52 168.13-11.52L168.13-11.52L168.13-11.52Q168.45-11.52 168.45-11.10L168.45-11.10L168.45-11.10Q168.45-10.69 167.87-9.98L167.87-9.98L167.87-9.98Q164.16-5.63 160.96-3.90L160.96-3.90L160.96-3.90Q159.04-2.94 155.97-2.30L155.97-2.30ZM145.28-8.06L145.28-8.06L145.28-8.06Q145.28-5.89 146.72-4.51L146.72-4.51L146.72-4.51Q148.16-3.14 149.95-3.14L149.95-3.14L149.95-3.14Q151.74-3.14 152.70-3.84L152.70-3.84L152.70-3.84Q153.98-4.54 155.23-9.73L155.23-9.73L155.23-9.73Q156.48-14.91 156.74-18.88L156.74-18.88L156.99-21.06L156.99-21.06Q153.47-18.43 149.47-14.27L149.47-14.27L149.47-14.27Q145.47-10.11 145.34-8.77L145.34-8.77L145.34-8.77Q145.28-8.38 145.28-8.06ZM186.37-19.14L186.37-19.14L187.26-19.33L187.26-19.33Q187.97-19.33 188.61-18.75L188.61-18.75L188.61-18.75Q189.25-18.18 189.25-17.86L189.25-17.86L189.25-17.86Q189.25-17.54 185.28-11.68L185.28-11.68L185.28-11.68Q181.31-5.82 181.31-3.52L181.31-3.52L181.31-3.52Q181.31-3.33 181.38-3.14L181.38-3.14L181.38-3.14Q181.70-1.66 182.78-1.66L182.78-1.66L182.78-1.66Q186.11-1.66 194.94-12.67L194.94-12.67L194.94-12.67Q195.14-12.93 195.39-12.93L195.39-12.93L195.39-12.93Q195.65-12.93 195.65-12.45L195.65-12.45L195.65-12.45Q195.65-11.97 195.07-11.20L195.07-11.20L195.07-11.20Q186.88-0.26 182.59-0.26L182.59-0.26L182.59-0.26Q182.02-0.26 181.50-0.45L181.50-0.45L181.50-0.45Q178.69-1.54 178.69-4.67L178.69-4.67L178.69-4.67Q178.69-5.76 178.94-6.85L178.94-6.85L174.98-3.01L174.98-3.01Q171.20 0.32 169.50 0.32L169.50 0.32L169.50 0.32Q167.81 0.32 166.27-0.77L166.27-0.77L166.27-0.77Q164.54-2.05 164.54-4.16L164.54-4.16L164.54-4.16Q164.54-8.83 171.07-15.33L171.07-15.33L171.07-15.33Q177.60-21.82 183.04-21.82L183.04-21.82L183.04-21.82Q185.15-21.82 185.86-20.35L185.86-20.35L185.86-20.35Q186.05-19.84 186.18-19.49L186.18-19.49L186.18-19.49Q186.30-19.14 186.37-19.14ZM167.23-3.39L167.23-3.39L167.23-3.39Q167.23-1.09 168.83-1.09L168.83-1.09L168.83-1.09Q172.54-1.09 178.94-9.22L178.94-9.22L185.73-18.56L185.73-18.56Q185.22-19.46 184.06-19.46L184.06-19.46L184.06-19.46Q180.16-19.46 173.70-13.41L173.70-13.41L173.70-13.41Q167.23-7.36 167.23-3.39ZM226.11-17.79L226.11-17.79L226.11-17.79Q222.27-17.79 219.65-19.55L219.65-19.55L219.65-19.55Q217.02-21.31 217.02-24L217.02-24L217.02-24Q217.02-27.39 221.44-30.78L221.44-30.78L221.44-30.78Q222.21-31.36 222.59-31.36L222.59-31.36L222.59-31.36Q222.98-31.36 222.98-31.10L222.98-31.10L222.98-31.10Q222.98-30.46 221.95-30.08L221.95-30.08L221.95-30.08Q218.37-27.20 218.37-24.26L218.37-24.26L218.37-24.26Q218.37-22.14 220.29-20.70L220.29-20.70L220.29-20.70Q222.21-19.26 225.09-19.26L225.09-19.26L225.09-19.26Q231.36-19.26 236.93-25.28L236.93-25.28L236.93-25.28Q239.81-28.42 239.81-32.51L239.81-32.51L239.81-32.51Q239.81-36.61 236.74-38.59L236.74-38.59L236.74-38.59Q234.18-40.38 229.82-40.38L229.82-40.38L229.82-40.38Q223.55-40.38 217.22-37.25L217.22-37.25L217.22-37.25Q209.41-33.47 203.10-25.50L203.10-25.50L203.10-25.50Q196.80-17.54 196.80-10.18L196.80-10.18L196.80-10.18Q196.80-4.35 200.77-1.18L200.77-1.18L200.77-1.18Q204.74 1.98 210.62 1.98L210.62 1.98L210.62 1.98Q217.34 1.98 223.81-1.28L223.81-1.28L223.81-1.28Q228.74-3.84 232.32-7.81L232.32-7.81L232.32-7.81Q233.34-8.96 233.92-8.96L233.92-8.96L233.92-8.96Q234.30-8.96 234.30-8.29L234.30-8.29L234.30-8.29Q234.30-7.62 233.60-6.91L233.60-6.91L233.60-6.91Q230.21-3.33 223.81 0L223.81 0L223.81 0Q215.94 4.16 207.97 4.16L207.97 4.16L207.97 4.16Q200 4.16 196.10-1.09L196.10-1.09L196.10-1.09Q193.47-4.54 193.47-9.34L193.47-9.34L193.47-9.34Q193.47-11.46 193.98-13.89L193.98-13.89L193.98-13.89Q195.71-22.08 203.07-29.82L203.07-29.82L203.07-29.82Q208.38-35.39 215.68-38.50L215.68-38.50L215.68-38.50Q222.98-41.60 229.50-41.60L229.50-41.60L229.50-41.60Q232.96-41.60 235.52-40.77L235.52-40.77L235.52-40.77Q242.50-38.59 242.50-32L242.50-32L242.50-32Q242.50-27.97 240.13-25.02L240.13-25.02L240.13-25.02Q234.24-17.79 226.11-17.79ZM253.12-0.26L253.12-0.26L253.12-0.26Q249.34-0.26 249.34-4.67L249.34-4.67L249.34-4.67Q249.34-7.17 251.10-10.21L251.10-10.21L251.10-10.21Q252.86-13.25 255.42-17.34L255.42-17.34L255.42-17.34Q247.23-13.25 240.58-5.25L240.58-5.25L240.58-5.25Q236.86 0.32 236.22 0.32L236.22 0.32L236.22 0.32Q234.37 0.32 234.37-0.77L234.37-0.77L234.37-0.77Q234.37-1.34 235.14-2.82L235.14-2.82L235.14-2.82Q241.34-13.89 244.54-19.01L244.54-19.01L244.54-19.01Q252.16-31.23 255.30-32.26L255.30-32.26L255.30-32.26Q255.42-32.32 255.55-32.32L255.55-32.32L255.55-32.32Q256.38-32.32 256.70-30.98L256.70-30.98L256.70-30.98Q256.51-29.63 250.05-21.25L250.05-21.25L250.05-21.25Q243.33-12.74 242.43-10.11L242.43-10.11L242.43-10.11Q244.80-11.84 250.69-15.94L250.69-15.94L250.69-15.94Q257.02-20.35 259.07-20.35L259.07-20.35L259.07-20.35Q261.12-20.35 261.12-18.75L261.12-18.75L261.12-18.75Q261.12-18.50 261.09-18.40L261.09-18.40L261.09-18.40Q261.06-18.30 256.64-12.35L256.64-12.35L256.64-12.35Q252.22-6.40 252.22-3.58L252.22-3.58L252.22-3.58Q252.22-2.11 253.31-2.11L253.31-2.11L253.31-2.11Q256.77-2.24 263.68-10.43L263.68-10.43L263.68-10.43Q264.26-11.01 264.54-11.01L264.54-11.01L264.54-11.01Q264.83-11.01 264.83-10.62L264.83-10.62L264.83-10.62Q264.83-9.34 258.50-3.71L258.50-3.71L258.50-3.71Q254.53-0.26 253.12-0.26ZM265.28 0.83L265.28 0.83L265.28 0.83Q264.58 0.83 264 0.64L264 0.64L264 0.64Q259.90-0.51 259.90-3.97L259.90-3.97L259.90-3.97Q259.90-8.45 265.54-14.34L265.54-14.34L265.54-14.34Q271.17-20.22 275.65-20.22L275.65-20.22L275.65-20.22Q277.12-20.22 278.05-19.42L278.05-19.42L278.05-19.42Q278.98-18.62 278.98-17.47L278.98-17.47L278.98-17.47Q278.98-13.89 273.57-10.62L273.57-10.62L273.57-10.62Q268.16-7.36 264.77-7.36L264.77-7.36L264.77-7.36Q264.26-7.36 263.87-7.49L263.87-7.49L263.87-7.49Q262.91-5.76 262.91-3.84L262.91-3.84L262.91-3.84Q262.91-0.51 266.08-0.51L266.08-0.51L266.08-0.51Q269.25-0.51 274.30-4.80L274.30-4.80L274.30-4.80Q278.21-7.94 280.96-11.46L280.96-11.46L280.96-11.46Q281.54-12.22 281.95-12.22L281.95-12.22L281.95-12.22Q282.37-12.22 282.37-11.84L282.37-11.84L282.37-11.84Q282.37-11.46 281.86-10.75L281.86-10.75L281.86-10.75Q278.40-6.21 273.54-2.69L273.54-2.69L273.54-2.69Q268.67 0.83 265.28 0.83ZM277.38-17.60L277.38-17.60L277.38-17.60Q277.38-18.37 275.74-18.37L275.74-18.37L275.74-18.37Q274.11-18.37 271.10-15.87L271.10-15.87L271.10-15.87Q267.07-12.54 264.83-8.90L264.83-8.90L264.83-8.90Q265.22-8.77 265.66-8.77L265.66-8.77L265.66-8.77Q268.10-8.77 272.16-11.36L272.16-11.36L272.16-11.36Q276.22-13.95 277.25-17.02L277.25-17.02L277.25-17.02Q277.38-17.34 277.38-17.60ZM292.29-2.30L290.24-0.96L290.24-0.96Q288.38 0.13 285.66 0.13L285.66 0.13L285.66 0.13Q282.94 0.13 281.50-1.66L281.50-1.66L281.50-1.66Q280.06-3.46 279.04-7.36L279.04-7.36L279.04-7.36Q277.89-6.21 277.44-6.21L277.44-6.21L277.44-6.21Q277.12-6.21 277.12-6.66L277.12-6.66L277.12-6.66Q277.12-7.10 277.44-7.42L277.44-7.42L277.44-7.42Q279.55-10.05 284.61-14.98L284.61-14.98L292.67-22.53L292.67-22.53Q296.13-25.79 296.77-25.79L296.77-25.79L296.77-25.79Q298.82-25.79 298.82-24.26L298.82-24.26L298.82-24.26Q298.82-23.49 298.21-22.75L298.21-22.75L298.21-22.75Q297.60-22.02 297.31-21.60L297.31-21.60L297.31-21.60Q297.02-21.18 296.70-20.80L296.70-20.80L296.70-20.80Q295.55-18.82 294.37-12.61L294.37-12.61L294.37-12.61Q293.18-6.40 292.54-3.97L292.54-3.97L292.54-3.97Q297.86-4.03 303.49-10.88L303.49-10.88L303.49-10.88Q304.13-11.52 304.45-11.52L304.45-11.52L304.45-11.52Q304.77-11.52 304.77-11.10L304.77-11.10L304.77-11.10Q304.77-10.69 304.19-9.98L304.19-9.98L304.19-9.98Q300.48-5.63 297.28-3.90L297.28-3.90L297.28-3.90Q295.36-2.94 292.29-2.30L292.29-2.30ZM281.60-8.06L281.60-8.06L281.60-8.06Q281.60-5.89 283.04-4.51L283.04-4.51L283.04-4.51Q284.48-3.14 286.27-3.14L286.27-3.14L286.27-3.14Q288.06-3.14 289.02-3.84L289.02-3.84L289.02-3.84Q290.30-4.54 291.55-9.73L291.55-9.73L291.55-9.73Q292.80-14.91 293.06-18.88L293.06-18.88L293.31-21.06L293.31-21.06Q289.79-18.43 285.79-14.27L285.79-14.27L285.79-14.27Q281.79-10.11 281.66-8.77L281.66-8.77L281.66-8.77Q281.60-8.38 281.60-8.06ZM315.33-26.11L315.33-26.11Q316.29-26.11 317.15-25.50L317.15-25.50L317.15-25.50Q318.02-24.90 318.02-24.06L318.02-24.06L318.02-24.06Q318.02-23.23 317.22-22.62L317.22-22.62L317.22-22.62Q316.42-22.02 315.46-22.02L315.46-22.02L315.46-22.02Q314.50-22.02 313.70-22.72L313.70-22.72L313.70-22.72Q312.90-23.42 312.90-24.32L312.90-24.32L312.90-24.32Q312.90-26.11 315.33-26.11L315.33-26.11ZM303.74 0.70L303.74 0.70L303.74 0.70Q300.48 0.70 300.48-3.52L300.48-3.52L300.48-3.52Q300.48-6.98 304.26-13.09L304.26-13.09L304.26-13.09Q308.03-19.20 310.34-19.26L310.34-19.26L310.34-19.26Q310.98-19.26 311.78-18.75L311.78-18.75L311.78-18.75Q312.58-18.24 312.58-17.73L312.58-17.73L312.58-17.73Q312.26-17.28 311.81-16.74L311.81-16.74L311.81-16.74Q311.36-16.19 310.85-15.55L310.85-15.55L310.85-15.55Q310.34-14.91 309.44-13.73L309.44-13.73L309.44-13.73Q308.54-12.54 307.71-11.46L307.71-11.46L307.71-11.46Q302.91-5.25 302.91-2.91L302.91-2.91L302.91-2.91Q302.91-0.58 304.51-0.58L304.51-0.58L304.51-0.58Q305.86-0.58 308.16-2.05L308.16-2.05L308.16-2.05Q313.54-5.38 316.67-9.34L316.67-9.34L316.67-9.34Q317.82-10.82 318.24-10.82L318.24-10.82L318.24-10.82Q318.66-10.82 318.66-10.30L318.66-10.30L318.66-10.30Q318.66-9.79 317.18-8.26L317.18-8.26L317.18-8.26Q315.71-6.72 314.85-5.82L314.85-5.82L314.85-5.82Q313.98-4.93 313.66-4.64L313.66-4.64L313.66-4.64Q313.34-4.35 312.48-3.55L312.48-3.55L312.48-3.55Q311.62-2.75 311.17-2.43L311.17-2.43L311.17-2.43Q310.72-2.11 309.89-1.47L309.89-1.47L309.89-1.47Q309.06-0.83 308.42-0.54L308.42-0.54L308.42-0.54Q307.78-0.26 306.94 0.13L306.94 0.13L306.94 0.13Q305.60 0.70 303.74 0.70Z" fill="url(#editing-glowing-gradient)"></path></g></g><style>text {
  font-size: 64px;
  font-family: Arial Black;
  dominant-baseline: central;
  text-anchor: middle;
}</style></svg>