<svg width="536.862646484375px" height="197.6px" xmlns="http://www.w3.org/2000/svg" viewBox="-18.43132324218749 -23.799999999999997 536.862646484375 197.6" style="background: rgba(0, 0, 0, 0);" preserveAspectRatio="xMidYMid"><defs><linearGradient id="editing-gradient-gradient" x1="0" x2="1" y1="0.5" y2="0.5" gradientUnits="objectBoundingBox"><stop offset="0" stop-color="#000000"></stop><stop offset="1" stop-color="#000000"></stop></linearGradient></defs><g><g transform="translate(65.0077486038208, 114.53000164031982)"><path d="M24.88-13.65L24.88-13.65Q26.56-13.65 27.93-15.43L27.93-15.43L27.93-15.43Q29.29-17.22 29.29-18.79L29.29-18.79L29.29-18.79Q29.29-20.37 28.98-21.11L28.98-21.11L28.98-21.11Q26.77-19.21 25.46-17.32L25.46-17.32L25.46-17.32Q24.15-15.43 24.15-14.54L24.15-14.54L24.15-14.54Q24.15-13.65 24.88-13.65L24.88-13.65ZM61.42-37.48L61.42-37.48L61.42-37.48Q61.42-36.64 61.95-36.64L61.95-36.64L61.95-36.64Q63.95-36.64 65.94-39.69L65.94-39.69L65.94-39.69Q67.94-42.73 68.67-46.93L68.67-46.93L68.67-46.93Q61.42-40.42 61.42-37.48ZM85.36-66.78L85.36-66.78L85.36-66.78Q85.36-67.41 84.73-67.41L84.73-67.41L84.73-67.41Q82.11-67.41 79.80-63.89L79.80-63.89L79.80-63.89Q77.49-60.38 76.86-56.07L76.86-56.07L76.86-56.07Q85.36-63.63 85.36-66.78ZM52.60-70.14L52.60-70.14L52.60-70.14Q62.05-70.14 66.47-64.84L66.47-64.84L66.47-64.84Q70.88-59.53 70.88-51.87L70.88-51.87L70.88-50.92L74.86-54.39L74.86-54.39Q75.18-60.16 78.59-65.15L78.59-65.15L78.59-65.15Q82.00-70.14 86.94-70.14L86.94-70.14L86.94-70.14Q88.52-70.14 88.52-68.09L88.52-68.09L88.52-68.09Q88.52-66.05 85.42-62.58L85.42-62.58L85.42-62.58Q82.32-59.11 76.65-54.07L76.65-54.07L76.65-53.55L76.65-53.55Q76.65-47.35 81.38-47.35L81.38-47.35L81.38-47.35Q84.73-47.35 86.73-49.14L86.73-49.14L86.73-49.14Q87.57-49.77 87.94-49.77L87.94-49.77L87.94-49.77Q88.30-49.77 88.30-49.19L88.30-49.19L88.30-49.19Q88.30-48.61 87.88-48.46L87.88-48.46L87.88-48.46Q87.47-48.30 86.89-47.83L86.89-47.83L86.89-47.83Q86.31-47.35 85.68-46.93L85.68-46.93L85.68-46.93Q84-45.78 80.85-45.78L80.85-45.78L80.85-45.78Q75.39-45.78 74.86-52.50L74.86-52.50L70.66-48.82L70.66-48.82Q70.03-43.05 67.36-38.80L67.36-38.80L67.36-38.80Q64.68-34.55 61.32-34.55L61.32-34.55L61.32-34.55Q59.11-34.55 59.11-36.75L59.11-36.75L59.11-36.75Q59.11-40.53 68.98-49.24L68.98-49.24L68.98-49.24Q69.09-49.98 69.09-51.34L69.09-51.34L69.09-51.34Q69.09-58.48 64.63-63.37L64.63-63.37L64.63-63.37Q60.16-68.25 50.19-68.25L50.19-68.25L50.19-68.25Q45.25-68.25 39.38-66.36L39.38-66.36L39.38-66.36Q28.04-62.89 19.74-53.13L19.74-53.13L19.74-53.13Q19.11-52.50 18.48-51.66L18.48-51.66L18.48-51.66Q17.32-49.98 16.91-49.98L16.91-49.98L16.91-49.98Q16.17-50.40 16.17-50.92L16.17-50.92L16.17-50.92Q18.27-53.97 21.95-57.43L21.95-57.43L21.95-57.43Q25.62-60.90 29.56-63.42L29.56-63.42L29.56-63.42Q33.49-65.94 39.74-68.04L39.74-68.04L39.74-68.04Q45.99-70.14 52.60-70.14ZM47.35-29.08L47.35-29.08L49.45-28.98L49.45-28.98Q51.13-28.88 51.13-27.72L51.13-27.72L51.13-27.72Q51.03-27.40 50.56-27.40L50.56-27.40L50.56-27.40Q50.09-27.40 49.24-27.61L49.24-27.61L49.24-27.61Q48.41-27.82 47.04-27.82L47.04-27.82L47.04-27.82Q38.01-27.82 30.55-22.36L30.55-22.36L30.55-22.36Q31.18-21 31.18-18.85L31.18-18.85L31.18-18.85Q31.18-16.70 29.29-14.59L29.29-14.59L29.29-14.59Q27.40-12.49 24.99-12.49L24.99-12.49L24.99-12.49Q22.57-12.49 22.57-14.17L22.57-14.17L22.57-14.17Q22.57-17.64 28.45-22.36L28.45-22.36L28.45-22.36Q26.25-25.72 19.63-25.72L19.63-25.72L19.63-25.72Q13.02-25.72 9.19-21.73L9.19-21.73L9.19-21.73Q5.35-17.75 5.35-11.92L5.35-11.92L5.35-11.92Q5.35-6.09 9.82-1.57L9.82-1.57L9.82-1.57Q14.28 2.94 22.26 2.94L22.26 2.94L22.26 2.94Q35.91 2.94 50.19-7.56L50.19-7.56L50.19-7.56Q54.91-11.03 57.91-13.54L57.91-13.54L57.91-13.54Q60.90-16.06 65.05-20.27L65.05-20.27L65.05-20.27Q69.19-24.46 70.77-26.14L70.77-26.14L75.28-31.18L75.28-31.18Q78.86-35.49 84-41.21L84-41.21L84-41.21Q89.14-46.93 93.34-51.61L93.34-51.61L93.34-51.61Q97.55-56.28 101.06-59.80L101.06-59.80L101.06-59.80Q104.58-63.31 108.15-66.57L108.15-66.57L108.15-66.57Q115.60-73.39 118.86-73.39L118.86-73.39L118.86-73.39Q119.80-73.39 119.80-72.61L119.80-72.61L119.80-72.61Q119.80-71.82 118.96-71.40L118.96-71.40L118.96-71.40Q114.97-68.88 108.83-59.06L108.83-59.06L108.83-59.06Q102.69-49.24 94.71-35.17L94.71-35.17L94.71-35.17Q86.73-21.11 81.27-13.54L81.27-13.54L81.27-13.54Q82.84-14.59 91.09-22.79L91.09-22.79L91.09-22.79Q99.33-30.97 108.67-40.06L108.67-40.06L108.67-40.06Q118.02-49.14 129.94-58.64L129.94-58.64L129.94-58.64Q141.85-68.14 150.47-72.13L150.47-72.13L150.47-72.13Q151.94-72.77 152.46-72.77L152.46-72.77L152.46-72.77Q153.61-72.77 153.61-71.82L153.61-71.82L153.61-71.82Q153.61-71.40 152.88-71.08L152.88-71.08L152.88-71.08Q145.63-66.05 132.35-52.08L132.35-52.08L132.35-52.08Q119.07-38.12 107.89-22.84L107.89-22.84L107.89-22.84Q96.70-7.56 96.70-1.16L96.70-1.16L96.70-1.16Q96.70 3.78 100.80 3.78L100.80 3.78L100.80 3.78Q106.36 3.78 112.88-1.36L112.88-1.36L112.88-1.36Q115.92-3.78 116.34-3.78L116.34-3.78L116.34-3.78Q117.39-3.78 117.39-3.04L117.39-3.04L117.39-3.04Q117.39-2.73 117.07-2.42L117.07-2.42L117.07-2.42Q105.73 5.56 99.33 5.56L99.33 5.56L99.33 5.56Q92.92 5.56 92.92-0.42L92.92-0.42L92.92-0.42Q92.92-4.93 98.65-14.12L98.65-14.12L98.65-14.12Q104.37-23.31 112.35-32.87L112.35-32.87L112.35-32.87Q131.35-55.65 142.17-64.47L142.17-64.47L142.17-64.47Q143.32-65.52 144.48-66.57L144.48-66.57L145.53-67.52L145.53-67.52Q138.81-64.26 126.79-54.02L126.79-54.02L126.79-54.02Q114.77-43.78 102.06-31.29L102.06-31.29L102.06-31.29Q80.53-10.08 69.19 1.99L69.19 1.99L69.19 1.99Q68.56 2.94 67.83 2.94L67.83 2.94L67.83 2.94Q67.20 2.52 67.20 2.05L67.20 2.05L67.20 2.05Q67.20 1.57 67.52 1.26L67.52 1.26L67.52 1.26Q67.83 0.94 68.88-0.53L68.88-0.53L68.88-0.53Q71.82-4.62 73.81-7.04L73.81-7.04L73.81-7.04Q77.70-11.55 92.24-36.64L92.24-36.64L92.24-36.64Q106.78-61.74 111.83-67.20L111.83-67.20L111.83-67.20Q101.33-58.80 84.63-38.95L84.63-38.95L84.63-38.95Q69.41-20.79 55.02-9.03L55.02-9.03L55.02-9.03Q47.77-3.04 38.90 0.89L38.90 0.89L38.90 0.89Q30.03 4.83 21.26 4.83L21.26 4.83L21.26 4.83Q12.49 4.83 7.56 0.10L7.56 0.10L7.56 0.10Q2.63-4.62 2.63-11.13L2.63-11.13L2.63-11.13Q2.63-17.64 7.51-22.42L7.51-22.42L7.51-22.42Q12.39-27.20 19.79-27.20L19.79-27.20L19.79-27.20Q27.20-27.20 29.92-23.52L29.92-23.52L29.92-23.52Q37.80-29.08 47.35-29.08ZM122.74-5.46L122.74-5.46L122.74-4.72L122.74-4.72Q134.50-9.24 134.50-13.75L134.50-13.75L134.50-13.75Q134.50-16.06 131.62-16.06L131.62-16.06L131.62-16.06Q128.73-16.06 125.74-12.49L125.74-12.49L125.74-12.49Q122.74-8.92 122.74-5.46ZM137.13-14.59L137.13-14.59L137.13-14.59Q137.13-8.29 123.06-3.67L123.06-3.67L123.06-3.67Q123.90-1.26 127.68-1.26L127.68-1.26L127.68-1.26Q134.09-1.26 139.86-6.51L139.86-6.51L139.86-6.51Q140.18-6.93 140.54-6.93L140.54-6.93L140.54-6.93Q140.91-6.93 140.91-6.25L140.91-6.25L140.91-6.25Q140.91-5.56 139.02-3.99L139.02-3.99L139.02-3.99Q137.13-2.42 133.66-0.94L133.66-0.94L133.66-0.94Q130.20 0.53 126.84 0.53L126.84 0.53L126.84 0.53Q119.70 0.53 119.70-4.72L119.70-4.72L119.70-4.72Q119.70-9.03 124.06-13.44L124.06-13.44L124.06-13.44Q128.41-17.85 133.45-17.85L133.45-17.85L133.45-17.85Q137.13-17.85 137.13-14.59ZM154.19-26.93L154.19-26.93L154.19-26.93Q160.02-34.13 166.11-41.42L166.11-41.42L166.11-41.42Q172.20-48.72 172.57-49.14L172.57-49.14L172.57-49.14Q172.94-49.56 174.04-49.56L174.04-49.56L174.04-49.56Q175.14-49.56 175.14-48.93L175.14-48.93L175.14-48.61L175.14-48.61Q175.14-47.98 174.61-47.67L174.61-47.67L174.61-47.67Q169.99-43.26 155.40-25.20L155.40-25.20L155.40-25.20Q140.80-7.14 140.80-4.57L140.80-4.57L140.80-4.57Q140.80-1.99 143.32-1.99L143.32-1.99L143.32-1.99Q144.16-1.99 146.05-2.52L146.05-2.52L146.05-2.52Q149.41-3.88 150.99-5.41L150.99-5.41L150.99-5.41Q152.56-6.93 152.93-6.93L152.93-6.93L152.93-6.93Q153.30-6.93 153.30-6.30L153.30-6.30L153.30-6.30Q153.30-5.67 151.41-4.04L151.41-4.04L151.41-4.04Q149.52-2.42 146.68-1.16L146.68-1.16L146.68-1.16Q143.85 0.10 141.54 0.10L141.54 0.10L141.54 0.10Q138.07 0.10 138.07-3.15L138.07-3.15L138.07-3.15Q138.07-5.14 143.22-12.44L143.22-12.44L143.22-12.44Q148.36-19.74 154.19-26.93ZM167.26-25.09L167.26-25.09Q167.26-26.04 168.21-27.14L168.21-27.14L168.21-27.14Q169.16-28.24 169.94-28.24L169.94-28.24L169.94-28.24Q170.73-28.24 171.20-27.77L171.20-27.77L171.20-27.77Q171.67-27.30 171.67-26.36L171.67-26.36L171.67-26.36Q171.67-25.41 170.57-24.57L170.57-24.57L170.57-24.57Q169.47-23.73 168.73-23.73L168.73-23.73L168.73-23.73Q167.26-23.73 167.26-25.09L167.26-25.09ZM152.46-2.63L152.46-2.63L152.46-2.63Q152.46-4.30 155.19-7.25L155.19-7.25L163.06-16.17L163.06-16.17Q163.69-16.80 163.69-17.22L163.69-17.22L163.69-17.22Q163.69-17.64 163.33-17.95L163.33-17.95L163.33-17.95Q162.96-18.27 162.38-18.27L162.38-18.27L162.38-18.27Q161.81-18.27 161.38-17.90L161.38-17.90L161.38-17.90Q160.97-17.54 159.76-16.06L159.76-16.06L159.76-16.06Q158.55-14.59 156.45-12.13L156.45-12.13L156.45-12.13Q154.35-9.66 153.67-8.82L153.67-8.82L153.67-8.82Q152.98-7.98 152.14-6.98L152.14-6.98L152.14-6.98Q151.31-5.98 150.78-5.35L150.78-5.35L150.78-5.35Q149.41-3.46 149.41-2.10L149.41-2.10L149.41-2.10Q149.41 0.32 151.72 0.32L151.72 0.32L151.72 0.32Q155.08 0.32 159.34-2.42L159.34-2.42L159.34-2.42Q163.59-5.14 163.59-6.40L163.59-6.40L163.59-6.40Q163.59-6.93 163.22-6.93L163.22-6.93L163.22-6.93Q162.85-6.93 162.54-6.51L162.54-6.51L162.54-6.51Q156.97-1.47 153.93-1.47L153.93-1.47L153.93-1.47Q152.46-1.47 152.46-2.63ZM161.59-2.83L161.38-4.09L161.38-4.09Q161.38-7.25 163.90-9.24L163.90-9.24L163.90-9.24Q166.42-11.23 169.42-11.23L169.42-11.23L169.42-11.23Q172.41-11.23 172.41-8.61L172.41-8.61L172.41-8.61Q172.41-7.46 171.62-6.30L171.62-6.30L171.62-6.30Q170.83-5.14 169.94-5.14L169.94-5.14L169.94-5.14Q169.05-5.14 169.05-5.83L169.05-5.83L169.05-5.83Q169.05-6.51 169.73-7.14L169.73-7.14L169.73-7.14Q170.41-7.77 170.41-8.40L170.41-8.40L170.41-8.40Q170.41-10.19 168.73-10.19L168.73-10.19L168.73-10.19Q167.05-10.19 165.53-8.66L165.53-8.66L165.53-8.66Q164.01-7.14 164.01-5.09L164.01-5.09L164.01-5.09Q164.01-3.04 165.06-1.68L165.06-1.68L165.06-1.68Q166.11-0.32 168.37-0.32L168.37-0.32L168.37-0.32Q170.62-0.32 172.25-2.26L172.25-2.26L172.25-2.26Q173.88-4.20 174.72-6.98L174.72-6.98L174.72-6.98Q175.56-9.76 176.56-12.60L176.56-12.60L176.56-12.60Q177.55-15.43 179.60-17.38L179.60-17.38L179.60-17.38Q181.65-19.32 184.06-19.32L184.06-19.32L184.06-19.32Q186.48-19.32 187.84-18.53L187.84-18.53L187.84-18.53Q189.21-17.75 189.21-16.48L189.21-16.48L189.21-16.48Q189.21-15.22 188.21-14.07L188.21-14.07L188.21-14.07Q187.21-12.91 186.06-12.91L186.06-12.91L186.06-12.91Q184.90-12.91 184.80-13.44L184.80-13.44L184.80-13.44Q184.80-14.28 185.95-14.91L185.95-14.91L185.95-14.91Q186.58-15.12 186.58-16.38L186.58-16.38L186.58-16.38Q186.58-18.06 184.27-18.06L184.27-18.06L184.27-18.06Q181.96-18.06 180.39-15.07L180.39-15.07L180.39-15.07Q178.81-12.07 178.03-8.56L178.03-8.56L178.03-8.56Q177.24-5.04 174.61-2.05L174.61-2.05L174.61-2.05Q171.99 0.94 167.58 0.94L167.58 0.94L167.58 0.94Q164.85 0.94 163.27-0.32L163.27-0.32L163.27-0.32Q161.70-1.57 161.59-2.83L161.59-2.83ZM184.17-2.83L183.96-4.09L183.96-4.09Q183.96-7.25 186.48-9.24L186.48-9.24L186.48-9.24Q189.00-11.23 191.99-11.23L191.99-11.23L191.99-11.23Q194.98-11.23 194.98-8.61L194.98-8.61L194.98-8.61Q194.98-7.46 194.20-6.30L194.20-6.30L194.20-6.30Q193.41-5.14 192.52-5.14L192.52-5.14L192.52-5.14Q191.62-5.14 191.62-5.83L191.62-5.83L191.62-5.83Q191.62-6.51 192.31-7.14L192.31-7.14L192.31-7.14Q192.99-7.77 192.99-8.40L192.99-8.40L192.99-8.40Q192.99-10.19 191.31-10.19L191.31-10.19L191.31-10.19Q189.63-10.19 188.11-8.66L188.11-8.66L188.11-8.66Q186.58-7.14 186.58-5.09L186.58-5.09L186.58-5.09Q186.58-3.04 187.63-1.68L187.63-1.68L187.63-1.68Q188.68-0.32 190.94-0.32L190.94-0.32L190.94-0.32Q193.20-0.32 194.83-2.26L194.83-2.26L194.83-2.26Q196.45-4.20 197.29-6.98L197.29-6.98L197.29-6.98Q198.13-9.76 199.13-12.60L199.13-12.60L199.13-12.60Q200.13-15.43 202.18-17.38L202.18-17.38L202.18-17.38Q204.22-19.32 206.64-19.32L206.64-19.32L206.64-19.32Q209.05-19.32 210.42-18.53L210.42-18.53L210.42-18.53Q211.78-17.75 211.78-16.48L211.78-16.48L211.78-16.48Q211.78-15.22 210.79-14.07L210.79-14.07L210.79-14.07Q209.79-12.91 208.63-12.91L208.63-12.91L208.63-12.91Q207.48-12.91 207.37-13.44L207.37-13.44L207.37-13.44Q207.37-14.28 208.53-14.91L208.53-14.91L208.53-14.91Q209.16-15.12 209.16-16.38L209.16-16.38L209.16-16.38Q209.16-18.06 206.85-18.06L206.85-18.06L206.85-18.06Q204.54-18.06 202.96-15.07L202.96-15.07L202.96-15.07Q201.39-12.07 200.60-8.56L200.60-8.56L200.60-8.56Q199.81-5.04 197.19-2.05L197.19-2.05L197.19-2.05Q194.56 0.94 190.15 0.94L190.15 0.94L190.15 0.94Q187.42 0.94 185.85-0.32L185.85-0.32L185.85-0.32Q184.27-1.57 184.17-2.83L184.17-2.83ZM213.46-1.26L213.46-1.26L213.46-1.26Q217.56-1.26 222.60-5.51L222.60-5.51L222.60-5.51Q227.64-9.76 228.48-12.81L228.48-12.81L228.48-12.81Q228.48-14.07 226.90-14.96L226.90-14.96L226.90-14.96Q225.33-15.85 223.33-15.85L223.33-15.85L223.33-15.85Q218.50-15.85 214.46-11.71L214.46-11.71L214.46-11.71Q210.42-7.56 210.42-4.41L210.42-4.41L210.42-4.41Q210.42-1.26 213.46-1.26ZM224.28-17.54L224.28-17.54L224.28-17.54Q227.95-17.54 230.37-14.91L230.37-14.91L230.37-14.91Q230.47-14.91 232.05-16.48L232.05-16.48L232.05-16.48Q232.78-17.64 233.73-17.64L233.73-17.64L233.73-17.64Q234.67-17.64 234.67-16.70L234.67-16.70L234.25-15.75L234.25-15.75Q233.94-15.22 230.11-10.61L230.11-10.61L230.11-10.61Q226.27-5.98 225.70-5.14L225.70-5.14L225.70-5.14Q225.12-4.30 225.12-2.63L225.12-2.63L225.12-2.63Q225.12-1.47 226.59-1.47L226.59-1.47L226.59-1.47Q229.63-1.47 235.20-6.51L235.20-6.51L235.20-6.51Q235.51-6.93 235.88-6.93L235.88-6.93L235.88-6.93Q236.25-6.93 236.25-6.40L236.25-6.40L236.25-6.40Q236.25-5.14 232.00-2.42L232.00-2.42L232.00-2.42Q227.74 0.32 224.38 0.32L224.38 0.32L224.38 0.32Q222.07 0.32 222.07-2.10L222.07-2.10L222.07-2.10Q222.07-2.94 221.81-2.94L221.81-2.94L221.81-2.94Q221.55-2.94 221.44-2.83L221.44-2.83L221.44-2.83Q216.19 0.63 211.52 0.63L211.52 0.63L211.52 0.63Q206.85 0.63 206.85-3.57L206.85-3.57L206.85-3.57Q206.85-7.98 212.10-12.76L212.10-12.76L212.10-12.76Q217.35-17.54 224.28-17.54ZM275.83-43.05L275.83-43.05L275.83-42.95L275.83-42.95Q280.14-45.05 282.76-47.20L282.76-47.20L282.76-47.20Q285.39-49.35 285.39-50.56L285.39-50.56L285.39-50.56Q285.39-51.77 284.34-51.77L284.34-51.77L284.34-51.77Q282.13-51.77 278.98-48.88L278.98-48.88L278.98-48.88Q275.83-45.99 275.83-43.05ZM288.96-51.77L288.96-51.77L288.96-51.77Q288.96-49.45 285.39-46.57L285.39-46.57L285.39-46.57Q281.82-43.68 276.15-41.27L276.15-41.27L276.15-41.27Q277.41-38.74 281.92-38.74L281.92-38.74L281.92-38.74Q288.64-38.74 296.94-43.16L296.94-43.16L296.94-43.16Q305.23-47.56 310.96-53.71L310.96-53.71L310.96-53.71Q316.68-59.85 316.68-64.47L316.68-64.47L316.68-64.47Q316.68-71.30 303.82-71.30L303.82-71.30L303.82-71.30Q290.95-71.30 276.99-61.48L276.99-61.48L276.99-61.48Q263.02-51.66 253.26-37.80L253.26-37.80L254.20-37.80L254.20-37.80Q263.44-37.80 273.31-41.89L273.31-41.89L273.31-42.73L273.31-42.73Q273.31-46.30 278.25-50.09L278.25-50.09L278.25-50.09Q283.18-53.86 286.65-53.86L286.65-53.86L286.65-53.86Q288.96-53.86 288.96-51.77ZM255.67-55.54L255.67-55.54L253.05-55.75L253.05-55.75Q250.53-55.75 247.69-52.08L247.69-52.08L247.69-52.08Q244.86-48.41 244.86-45.78L244.86-45.78L244.86-45.78Q244.86-39.90 250.42-38.12L250.42-38.12L250.42-38.12Q261.03-52.81 276.62-63.16L276.62-63.16L276.62-63.16Q292.21-73.50 307.33-73.50L307.33-73.50L307.33-73.50Q319.41-73.50 319.41-66.25L319.41-66.25L319.41-66.25Q319.41-61.00 313.42-54.02L313.42-54.02L313.42-54.02Q307.44-47.04 298.20-41.95L298.20-41.95L298.20-41.95Q288.96-36.85 280.77-36.85L280.77-36.85L280.77-36.85Q275.41-36.85 273.73-40.32L273.73-40.32L273.73-40.32Q263.02-36.12 253.78-36.12L253.78-36.12L252.10-36.12L252.10-36.12Q242.65-22.26 242.65-12.07L242.65-12.07L242.65-12.07Q242.65-6.30 246.28-2.99L246.28-2.99L246.28-2.99Q249.90 0.32 257.46 0.32L257.46 0.32L257.46 0.32Q269.95 0.32 280.66-6.40L280.66-6.40L280.66-6.40Q283.18-7.98 284.44-9.03L284.44-9.03L285.70-10.08L285.70-10.08Q286.02-10.29 286.65-10.29L286.65-10.29L286.65-10.29Q287.28-10.29 287.28-9.61L287.28-9.61L287.28-9.61Q287.28-8.92 286.33-8.29L286.33-8.29L286.33-8.29Q273.00 2.21 255.67 2.21L255.67 2.21L255.67 2.21Q247.38 2.21 243.34-1.42L243.34-1.42L243.34-1.42Q239.29-5.04 239.29-11.34L239.29-11.34L239.29-11.34Q239.29-22.05 249.27-36.43L249.27-36.43L249.27-36.43Q242.02-38.64 242.02-45.05L242.02-45.05L242.02-45.05Q242.02-49.56 246.43-53.81L246.43-53.81L246.43-53.81Q250.84-58.06 254.52-58.06L254.52-58.06L254.52-58.06Q256.62-58.06 256.62-56.80L256.62-56.80L256.62-56.80Q256.62-55.54 255.67-55.54ZM334.84-48.20L334.84-48.20L334.84-48.20Q334.84-48.93 334.00-48.93L334.00-48.93L334.00-48.93Q330.64-48.93 313.42-29.50L313.42-29.50L313.42-29.50Q321.40-33.81 328.12-39.85L328.12-39.85L328.12-39.85Q334.84-45.88 334.84-48.20ZM286.96 0.10L286.96 0.10L286.96 0.10Q286.23 0.10 286.23-0.79L286.23-0.79L286.23-0.79Q286.23-1.68 287.07-2.31L287.07-2.31L287.07-2.31Q297.88-15.43 308.38-27.09L308.38-27.09L308.38-27.09Q330.33-51.13 336.21-51.13L336.21-51.13L336.21-51.13Q336.84-51.13 337.47-50.61L337.47-50.61L337.47-50.61Q338.10-50.09 338.10-49.35L338.10-49.35L338.10-49.35Q338.10-46.30 329.44-39.01L329.44-39.01L329.44-39.01Q320.77-31.71 311.22-26.98L311.22-26.98L311.22-26.98Q307.02-22.26 301.24-15.54L301.24-15.54L301.24-15.54Q306.18-18.59 309.54-18.59L309.54-18.59L309.54-18.59Q311.11-18.59 312.11-17.85L312.11-17.85L312.11-17.85Q313.11-17.11 313.53-15.64L313.53-15.64L313.53-15.64Q313.53-13.23 309.43-8.77L309.43-8.77L309.43-8.77Q305.34-4.30 305.34-2.63L305.34-2.63L305.34-2.63Q305.34-1.47 306.81-1.47L306.81-1.47L306.81-1.47Q309.85-1.47 315.42-6.51L315.42-6.51L315.42-6.51Q315.73-6.93 316.10-6.93L316.10-6.93L316.10-6.93Q316.47-6.93 316.47-6.40L316.47-6.40L316.47-6.40Q316.47-5.14 312.22-2.42L312.22-2.42L312.22-2.42Q307.96 0.32 304.60 0.32L304.60 0.32L304.60 0.32Q302.29 0.32 302.29-1.99L302.29-1.99L302.29-1.99Q302.29-4.30 306.28-8.77L306.28-8.77L306.28-8.77Q310.27-13.23 310.27-14.70L310.27-14.70L310.27-14.70Q310.27-16.17 307.39-16.12L307.39-16.12L307.39-16.12Q304.50-16.06 298.72-12.60L298.72-12.60L298.72-12.60Q289.90-2.52 289.27-1.89L289.27-1.89L289.27-1.89Q288.64-1.26 288.22-0.84L288.22-0.84L288.22-0.84Q287.38 0.10 286.96 0.10ZM317.94-5.46L317.94-5.46L317.94-4.72L317.94-4.72Q329.70-9.24 329.70-13.75L329.70-13.75L329.70-13.75Q329.70-16.06 326.81-16.06L326.81-16.06L326.81-16.06Q323.92-16.06 320.93-12.49L320.93-12.49L320.93-12.49Q317.94-8.92 317.94-5.46ZM332.32-14.59L332.32-14.59L332.32-14.59Q332.32-8.29 318.25-3.67L318.25-3.67L318.25-3.67Q319.09-1.26 322.87-1.26L322.87-1.26L322.87-1.26Q329.28-1.26 335.05-6.51L335.05-6.51L335.05-6.51Q335.37-6.93 335.74-6.93L335.74-6.93L335.74-6.93Q336.10-6.93 336.10-6.25L336.10-6.25L336.10-6.25Q336.10-5.56 334.21-3.99L334.21-3.99L334.21-3.99Q332.32-2.42 328.86-0.94L328.86-0.94L328.86-0.94Q325.39 0.53 322.03 0.53L322.03 0.53L322.03 0.53Q314.89 0.53 314.89-4.72L314.89-4.72L314.89-4.72Q314.89-9.03 319.25-13.44L319.25-13.44L319.25-13.44Q323.61-17.85 328.65-17.85L328.65-17.85L328.65-17.85Q332.32-17.85 332.32-14.59ZM334.00-2.83L333.79-4.09L333.79-4.09Q333.79-7.25 336.31-9.24L336.31-9.24L336.31-9.24Q338.83-11.23 341.83-11.23L341.83-11.23L341.83-11.23Q344.82-11.23 344.82-8.61L344.82-8.61L344.82-8.61Q344.82-7.46 344.03-6.30L344.03-6.30L344.03-6.30Q343.24-5.14 342.35-5.14L342.35-5.14L342.35-5.14Q341.46-5.14 341.46-5.83L341.46-5.83L341.46-5.83Q341.46-6.51 342.14-7.14L342.14-7.14L342.14-7.14Q342.82-7.77 342.82-8.40L342.82-8.40L342.82-8.40Q342.82-10.19 341.14-10.19L341.14-10.19L341.14-10.19Q339.46-10.19 337.94-8.66L337.94-8.66L337.94-8.66Q336.42-7.14 336.42-5.09L336.42-5.09L336.42-5.09Q336.42-3.04 337.47-1.68L337.47-1.68L337.47-1.68Q338.52-0.32 340.78-0.32L340.78-0.32L340.78-0.32Q343.03-0.32 344.66-2.26L344.66-2.26L344.66-2.26Q346.29-4.20 347.13-6.98L347.13-6.98L347.13-6.98Q347.97-9.76 348.97-12.60L348.97-12.60L348.97-12.60Q349.96-15.43 352.01-17.38L352.01-17.38L352.01-17.38Q354.06-19.32 356.47-19.32L356.47-19.32L356.47-19.32Q358.89-19.32 360.25-18.53L360.25-18.53L360.25-18.53Q361.62-17.75 361.62-16.48L361.62-16.48L361.62-16.48Q361.62-15.22 360.62-14.07L360.62-14.07L360.62-14.07Q359.62-12.91 358.47-12.91L358.47-12.91L358.47-12.91Q357.31-12.91 357.21-13.44L357.21-13.44L357.21-13.44Q357.21-14.28 358.36-14.91L358.36-14.91L358.36-14.91Q358.99-15.12 358.99-16.38L358.99-16.38L358.99-16.38Q358.99-18.06 356.68-18.06L356.68-18.06L356.68-18.06Q354.37-18.06 352.80-15.07L352.80-15.07L352.80-15.07Q351.22-12.07 350.44-8.56L350.44-8.56L350.44-8.56Q349.65-5.04 347.02-2.05L347.02-2.05L347.02-2.05Q344.40 0.94 339.99 0.94L339.99 0.94L339.99 0.94Q337.26 0.94 335.68-0.32L335.68-0.32L335.68-0.32Q334.11-1.57 334.00-2.83L334.00-2.83ZM375.27-25.09L375.27-25.09Q375.27-26.04 376.21-27.14L376.21-27.14L376.21-27.14Q377.16-28.24 377.95-28.24L377.95-28.24L377.95-28.24Q378.73-28.24 379.21-27.77L379.21-27.77L379.21-27.77Q379.68-27.30 379.68-26.36L379.68-26.36L379.68-26.36Q379.68-25.41 378.58-24.57L378.58-24.57L378.58-24.57Q377.47-23.73 376.74-23.73L376.74-23.73L376.74-23.73Q375.27-23.73 375.27-25.09L375.27-25.09ZM360.46-2.63L360.46-2.63L360.46-2.63Q360.46-4.30 363.19-7.25L363.19-7.25L371.07-16.17L371.07-16.17Q371.70-16.80 371.70-17.22L371.70-17.22L371.70-17.22Q371.70-17.64 371.33-17.95L371.33-17.95L371.33-17.95Q370.96-18.27 370.39-18.27L370.39-18.27L370.39-18.27Q369.81-18.27 369.39-17.90L369.39-17.90L369.39-17.90Q368.97-17.54 367.76-16.06L367.76-16.06L367.76-16.06Q366.55-14.59 364.45-12.13L364.45-12.13L364.45-12.13Q362.35-9.66 361.67-8.82L361.67-8.82L361.67-8.82Q360.99-7.98 360.15-6.98L360.15-6.98L360.15-6.98Q359.31-5.98 358.78-5.35L358.78-5.35L358.78-5.35Q357.42-3.46 357.42-2.10L357.42-2.10L357.42-2.10Q357.42 0.32 359.73 0.32L359.73 0.32L359.73 0.32Q363.09 0.32 367.34-2.42L367.34-2.42L367.34-2.42Q371.59-5.14 371.59-6.40L371.59-6.40L371.59-6.40Q371.59-6.93 371.23-6.93L371.23-6.93L371.23-6.93Q370.86-6.93 370.54-6.51L370.54-6.51L370.54-6.51Q364.98-1.47 361.93-1.47L361.93-1.47L361.93-1.47Q360.46-1.47 360.46-2.63Z" fill="url(#editing-gradient-gradient)"></path></g></g><style>text {
  font-size: 64px;
  font-family: Arial Black;
  dominant-baseline: central;
  text-anchor: middle;
}</style></svg>