<svg width="732.187841796875px" height="198.79999999999998px" xmlns="http://www.w3.org/2000/svg" viewBox="-116.09392089843749 -24.39999999999999 732.187841796875 198.79999999999998" style="background: rgba(0, 0, 0, 0);" preserveAspectRatio="xMidYMid"><defs><linearGradient id="editing-gradient-gradient" x1="0" x2="1" y1="0.5" y2="0.5" gradientUnits="objectBoundingBox"><stop offset="0" stop-color="#000000"></stop><stop offset="1" stop-color="#000000"></stop></linearGradient></defs><g><g transform="translate(-9.544131994247437, 112.70000457763672)"><path d="M44.41-4.30L44.41-4.30L44.41-4.30Q41.89-0.42 41.89 0.73L41.89 0.73L41.89 0.73Q41.89 1.89 42.84 2.42L42.84 2.42L42.84 2.42Q42.84 2.52 40.95 3.99L40.95 3.99L40.95 3.99Q39.27 4.83 37.17 4.83L37.17 4.83L37.17 4.83Q35.07 4.83 34.13 4.36L34.13 4.36L34.13 4.36Q33.18 3.88 33.49 2.83L33.49 2.83L33.49 2.83Q34.96-1.89 44.52-16.12L44.52-16.12L44.52-16.12Q54.07-30.34 57.33-36.23L57.33-36.23L57.33-36.23Q64.36-48.93 64.36-56.49L64.36-56.49L64.36-56.49Q64.36-59.64 63.31-61.84L63.31-61.84L63.31-61.84Q61.21-66.15 53.34-66.15L53.34-66.15L53.34-66.15Q41.05-66.15 27.93-55.54L27.93-55.54L27.93-55.54Q17.43-47.04 11.87-37.54L11.87-37.54L11.87-37.54Q6.30-28.04 6.30-20.58L6.30-20.58L6.30-20.58Q6.30-9.87 15.75-9.66L15.75-9.66L15.75-9.66Q16.17-9.66 16.59-9.66L16.59-9.66L16.59-9.66Q28.66-9.66 35.28-18.38L35.28-18.38L35.28-18.38Q37.80-21.84 37.80-24.25L37.80-24.25L37.80-24.25Q37.80-26.67 36.75-27.30L36.75-27.30L36.75-27.30Q36.64-27.40 36.64-27.72L36.64-27.72L36.64-27.72Q36.64-28.04 37.27-28.04L37.27-28.04L37.27-28.04Q40.00-28.04 40.00-24.46L40.00-24.46L40.00-24.46Q40.00-22.26 37.85-18.48L37.85-18.48L37.85-18.48Q35.70-14.70 30.24-11.34L30.24-11.34L30.24-11.34Q24.78-7.98 17.54-7.98L17.54-7.98L17.54-7.98Q10.29-7.98 5.98-12.49L5.98-12.49L5.98-12.49Q1.68-17.01 1.68-24.36L1.68-24.36L1.68-24.36Q1.68-40.95 23.31-58.27L23.31-58.27L23.31-58.27Q28.88-62.68 37.96-65.52L37.96-65.52L37.96-65.52Q47.04-68.36 55.34-68.36L55.34-68.36L55.34-68.36Q63.63-68.36 66.62-65.47L66.62-65.47L66.62-65.47Q69.61-62.58 69.61-57.75L69.61-57.75L69.61-57.75Q69.61-50.40 63.63-37.91L63.63-37.91L63.63-37.91Q61.74-34.02 55.13-23.73L55.13-23.73L63.21-34.02L63.21-34.02Q69.09-41.68 83.58-55.86L83.58-55.86L83.58-55.86Q86.73-58.91 90.56-60.95L90.56-60.95L90.56-60.95Q94.39-63 97.13-63L97.13-63L97.13-63Q100.91-63 100.91-59.01L100.91-59.01L100.91-59.01Q100.91-55.54 97.60-48.56L97.60-48.56L97.60-48.56Q94.29-41.58 90.93-35.33L90.93-35.33L90.93-35.33Q87.57-29.08 86.83-27.14L86.83-27.14L86.83-27.14Q86.10-25.20 85.78-24.04L85.78-24.04L85.78-24.04Q85.47-22.89 85.36-22.79L85.36-22.79L85.36-22.79Q85.68-23.31 92.30-30.82L92.30-30.82L92.30-30.82Q98.91-38.32 111.83-49.56L111.83-49.56L128.63-63.42L128.63-63.42Q130.62-65.10 132.19-65.10L132.19-65.10L132.19-65.10Q133.77-65.10 134.77-62.47L134.77-62.47L134.77-62.47Q135.76-59.85 135.76-58.22L135.76-58.22L135.76-58.22Q135.76-56.59 130.72-51.45L130.72-51.45L130.72-51.45Q117.60-38.01 108.46-22.05L108.46-22.05L108.46-22.05Q99.33-6.09 99.33 0.73L99.33 0.73L99.33 0.73Q99.33 2.52 99.96 3.20L99.96 3.20L99.96 3.20Q100.59 3.88 101.95 3.62L101.95 3.62L101.95 3.62Q103.32 3.36 107.68 1.47L107.68 1.47L107.68 1.47Q112.03-0.42 113.40-0.73L113.40-0.73L113.40-0.73Q113.92-0.53 113.92-0.21L113.92-0.21L113.92-0.21Q113.92 1.36 108.41 4.20L108.41 4.20L108.41 4.20Q102.90 7.04 100.12 7.04L100.12 7.04L100.12 7.04Q97.33 7.04 96.70 6.09L96.70 6.09L96.70 6.09Q94.81 3.36 94.81-0.53L94.81-0.53L94.81-0.53Q94.81-9.55 104.47-26.46L104.47-26.46L104.47-26.46Q110.67-37.06 123.58-55.02L123.58-55.02L123.58-55.02Q113.50-46.83 96.28-29.92L96.28-29.92L96.28-29.92Q79.06-13.02 73.71-3.46L73.71-3.46L73.71-3.46Q70.98 1.47 67.09 1.47L67.09 1.47L67.09 1.47Q65.31 1.47 65.31 0.21L65.31 0.21L65.31 0.21Q65.31-0.21 67.46-3.57L67.46-3.57L67.46-3.57Q69.61-6.93 76.97-19.32L76.97-19.32L76.97-19.32Q95.02-50.71 95.02-57.12L95.02-57.12L95.02-57.12Q95.02-58.80 93.87-58.80L93.87-58.80L93.87-58.80Q92.19-58.80 88.94-55.96L88.94-55.96L88.94-55.96Q77.28-46.20 64.16-30.45L64.16-30.45L64.16-30.45Q51.03-14.70 44.41-4.30ZM124.64 1.36L124.64 1.36L124.64 1.36Q123.48 1.36 122.53 1.05L122.53 1.05L122.53 1.05Q115.81-0.84 115.81-6.51L115.81-6.51L115.81-6.51Q115.81-13.86 125.06-23.52L125.06-23.52L125.06-23.52Q134.29-33.18 141.65-33.18L141.65-33.18L141.65-33.18Q144.06-33.18 145.58-31.87L145.58-31.87L145.58-31.87Q147.10-30.55 147.10-28.66L147.10-28.66L147.10-28.66Q147.10-22.79 138.23-17.43L138.23-17.43L138.23-17.43Q129.36-12.07 123.80-12.07L123.80-12.07L123.80-12.07Q122.95-12.07 122.33-12.29L122.33-12.29L122.33-12.29Q120.75-9.45 120.75-6.30L120.75-6.30L120.75-6.30Q120.75-0.84 125.95-0.84L125.95-0.84L125.95-0.84Q131.15-0.84 139.44-7.88L139.44-7.88L139.44-7.88Q145.84-13.02 150.36-18.79L150.36-18.79L150.36-18.79Q151.31-20.05 151.99-20.05L151.99-20.05L151.99-20.05Q152.67-20.05 152.67-19.43L152.67-19.43L152.67-19.43Q152.67-18.79 151.83-17.64L151.83-17.64L151.83-17.64Q146.16-10.19 138.18-4.41L138.18-4.41L138.18-4.41Q130.20 1.36 124.64 1.36ZM144.48-28.88L144.48-28.88L144.48-28.88Q144.48-30.13 141.80-30.13L141.80-30.13L141.80-30.13Q139.13-30.13 134.19-26.04L134.19-26.04L134.19-26.04Q127.58-20.58 123.90-14.59L123.90-14.59L123.90-14.59Q124.53-14.38 125.27-14.38L125.27-14.38L125.27-14.38Q129.25-14.38 135.92-18.64L135.92-18.64L135.92-18.64Q142.59-22.89 144.27-27.93L144.27-27.93L144.27-27.93Q144.48-28.45 144.48-28.88ZM150.36-5.25L150.36-5.25L150.36-5.25Q150.36-2.10 153.82-2.10L153.82-2.10L153.82-2.10Q157.29-2.10 162.75-5.77L162.75-5.77L162.75-5.77Q168.21-9.45 173.35-15.75L173.35-15.75L173.35-15.75Q174.61-17.43 175.35-17.43L175.35-17.43L175.35-17.43Q176.08-17.43 176.08-16.80L176.08-16.80L176.08-16.80Q176.08-16.17 171.78-11.34L171.78-11.34L171.78-11.34Q161.28 0.21 154.24 0.21L154.24 0.21L154.24 0.21Q150.78 0.21 148.36-1.42L148.36-1.42L148.36-1.42Q145.95-3.04 145.95-6.46L145.95-6.46L145.95-6.46Q145.95-9.87 147.73-14.38L147.73-14.38L147.73-14.38Q150.78-21.52 157.50-32.34L157.50-32.34L157.50-32.34Q169.78-52.29 174.93-52.29L174.93-52.29L174.93-52.29Q175.98-52.29 177.08-51.50L177.08-51.50L177.08-51.50Q178.18-50.71 178.29-49.77L178.29-49.77L178.29-49.77Q175.88-46.52 169.00-37.27L169.00-37.27L169.00-37.27Q162.12-28.04 159.49-23.99L159.49-23.99L159.49-23.99Q156.87-19.95 155.56-17.95L155.56-17.95L155.56-17.95Q154.24-15.96 153.61-14.86L153.61-14.86L153.61-14.86Q152.98-13.75 152.14-11.97L152.14-11.97L152.14-11.97Q150.36-8.40 150.36-5.25ZM194.56-42.84L194.56-42.84Q196.14-42.84 197.56-41.84L197.56-41.84L197.56-41.84Q198.97-40.84 198.97-39.48L198.97-39.48L198.97-39.48Q198.97-38.12 197.66-37.12L197.66-37.12L197.66-37.12Q196.35-36.12 194.77-36.12L194.77-36.12L194.77-36.12Q193.20-36.12 191.89-37.27L191.89-37.27L191.89-37.27Q190.57-38.43 190.57-39.90L190.57-39.90L190.57-39.90Q190.57-42.84 194.56-42.84L194.56-42.84ZM175.56 1.16L175.56 1.16L175.56 1.16Q170.20 1.16 170.20-5.77L170.20-5.77L170.20-5.77Q170.20-11.45 176.40-21.47L176.40-21.47L176.40-21.47Q182.59-31.50 186.37-31.61L186.37-31.61L186.37-31.61Q187.42-31.61 188.74-30.77L188.74-30.77L188.74-30.77Q190.05-29.92 190.05-29.08L190.05-29.08L190.05-29.08Q189.52-28.35 188.79-27.46L188.79-27.46L188.79-27.46Q188.05-26.56 187.21-25.52L187.21-25.52L187.21-25.52Q186.37-24.46 184.90-22.52L184.90-22.52L184.90-22.52Q183.43-20.58 182.07-18.79L182.07-18.79L182.07-18.79Q174.19-8.61 174.19-4.78L174.19-4.78L174.19-4.78Q174.19-0.94 176.82-0.94L176.82-0.94L176.82-0.94Q179.02-0.94 182.80-3.36L182.80-3.36L182.80-3.36Q191.62-8.82 196.77-15.33L196.77-15.33L196.77-15.33Q198.66-17.75 199.34-17.75L199.34-17.75L199.34-17.75Q200.02-17.75 200.02-16.91L200.02-16.91L200.02-16.91Q200.02-16.06 197.61-13.54L197.61-13.54L197.61-13.54Q195.19-11.03 193.78-9.55L193.78-9.55L193.78-9.55Q192.36-8.08 191.83-7.61L191.83-7.61L191.83-7.61Q191.31-7.14 189.89-5.83L189.89-5.83L189.89-5.83Q188.47-4.51 187.74-3.99L187.74-3.99L187.74-3.99Q187.00-3.46 185.64-2.42L185.64-2.42L185.64-2.42Q184.27-1.36 183.22-0.89L183.22-0.89L183.22-0.89Q182.17-0.42 180.81 0.21L180.81 0.21L180.81 0.21Q178.60 1.16 175.56 1.16ZM218.19-3.78L214.83-1.57L214.83-1.57Q211.78 0.21 207.32 0.21L207.32 0.21L207.32 0.21Q202.86 0.21 200.50-2.73L200.50-2.73L200.50-2.73Q198.13-5.67 196.45-12.07L196.45-12.07L196.45-12.07Q194.56-10.19 193.83-10.19L193.83-10.19L193.83-10.19Q193.30-10.19 193.30-10.92L193.30-10.92L193.30-10.92Q193.30-11.65 193.83-12.18L193.83-12.18L193.83-12.18Q197.29-16.48 205.59-24.57L205.59-24.57L218.82-36.96L218.82-36.96Q224.49-42.31 225.54-42.31L225.54-42.31L225.54-42.31Q228.90-42.31 228.90-39.80L228.90-39.80L228.90-39.80Q228.90-38.53 227.90-37.33L227.90-37.33L227.90-37.33Q226.90-36.12 226.43-35.44L226.43-35.44L226.43-35.44Q225.96-34.75 225.43-34.13L225.43-34.13L225.43-34.13Q223.54-30.87 221.60-20.68L221.60-20.68L221.60-20.68Q219.66-10.50 218.61-6.51L218.61-6.51L218.61-6.51Q227.32-6.61 236.56-17.85L236.56-17.85L236.56-17.85Q237.61-18.90 238.14-18.90L238.14-18.90L238.14-18.90Q238.66-18.90 238.66-18.22L238.66-18.22L238.66-18.22Q238.66-17.54 237.72-16.38L237.72-16.38L237.72-16.38Q231.63-9.24 226.38-6.40L226.38-6.40L226.38-6.40Q223.23-4.83 218.19-3.78L218.19-3.78ZM200.65-13.23L200.65-13.23L200.65-13.23Q200.65-9.66 203.02-7.40L203.02-7.40L203.02-7.40Q205.38-5.14 208.32-5.14L208.32-5.14L208.32-5.14Q211.26-5.14 212.83-6.30L212.83-6.30L212.83-6.30Q214.93-7.46 216.98-15.96L216.98-15.96L216.98-15.96Q219.03-24.46 219.45-30.97L219.45-30.97L219.87-34.55L219.87-34.55Q214.09-30.24 207.53-23.41L207.53-23.41L207.53-23.41Q200.97-16.59 200.76-14.38L200.76-14.38L200.76-14.38Q200.65-13.75 200.65-13.23ZM255.88-3.78L252.52-1.57L252.52-1.57Q249.48 0.21 245.02 0.21L245.02 0.21L245.02 0.21Q240.55 0.21 238.19-2.73L238.19-2.73L238.19-2.73Q235.83-5.67 234.15-12.07L234.15-12.07L234.15-12.07Q232.26-10.19 231.52-10.19L231.52-10.19L231.52-10.19Q231.00-10.19 231.00-10.92L231.00-10.92L231.00-10.92Q231.00-11.65 231.52-12.18L231.52-12.18L231.52-12.18Q234.99-16.48 243.28-24.57L243.28-24.57L256.51-36.96L256.51-36.96Q262.18-42.31 263.23-42.31L263.23-42.31L263.23-42.31Q266.59-42.31 266.59-39.80L266.59-39.80L266.59-39.80Q266.59-38.53 265.60-37.33L265.60-37.33L265.60-37.33Q264.60-36.12 264.13-35.44L264.13-35.44L264.13-35.44Q263.65-34.75 263.13-34.13L263.13-34.13L263.13-34.13Q261.24-30.87 259.30-20.68L259.30-20.68L259.30-20.68Q257.35-10.50 256.30-6.51L256.30-6.51L256.30-6.51Q265.02-6.61 274.26-17.85L274.26-17.85L274.26-17.85Q275.31-18.90 275.83-18.90L275.83-18.90L275.83-18.90Q276.36-18.90 276.36-18.22L276.36-18.22L276.36-18.22Q276.36-17.54 275.41-16.38L275.41-16.38L275.41-16.38Q269.32-9.24 264.07-6.40L264.07-6.40L264.07-6.40Q260.92-4.83 255.88-3.78L255.88-3.78ZM238.35-13.23L238.35-13.23L238.35-13.23Q238.35-9.66 240.71-7.40L240.71-7.40L240.71-7.40Q243.07-5.14 246.01-5.14L246.01-5.14L246.01-5.14Q248.95-5.14 250.53-6.30L250.53-6.30L250.53-6.30Q252.63-7.46 254.68-15.96L254.68-15.96L254.68-15.96Q256.72-24.46 257.14-30.97L257.14-30.97L257.56-34.55L257.56-34.55Q251.79-30.24 245.23-23.41L245.23-23.41L245.23-23.41Q238.66-16.59 238.45-14.38L238.45-14.38L238.45-14.38Q238.35-13.75 238.35-13.23ZM305.76-31.39L305.76-31.39L307.23-31.71L307.23-31.71Q308.38-31.71 309.43-30.77L309.43-30.77L309.43-30.77Q310.48-29.82 310.48-29.29L310.48-29.29L310.48-29.29Q310.48-28.77 303.97-19.16L303.97-19.16L303.97-19.16Q297.46-9.55 297.46-5.77L297.46-5.77L297.46-5.77Q297.46-5.46 297.57-5.14L297.57-5.14L297.57-5.14Q298.09-2.73 299.88-2.73L299.88-2.73L299.88-2.73Q305.34-2.73 319.83-20.79L319.83-20.79L319.83-20.79Q320.14-21.21 320.56-21.21L320.56-21.21L320.56-21.21Q320.98-21.21 320.98-20.42L320.98-20.42L320.98-20.42Q320.98-19.63 320.04-18.38L320.04-18.38L320.04-18.38Q306.60-0.42 299.56-0.42L299.56-0.42L299.56-0.42Q298.62-0.42 297.78-0.73L297.78-0.73L297.78-0.73Q293.16-2.52 293.16-7.67L293.16-7.67L293.16-7.67Q293.16-9.45 293.58-11.23L293.58-11.23L287.07-4.93L287.07-4.93Q280.88 0.53 278.09 0.53L278.09 0.53L278.09 0.53Q275.31 0.53 272.79-1.26L272.79-1.26L272.79-1.26Q269.95-3.36 269.95-6.83L269.95-6.83L269.95-6.83Q269.95-14.49 280.66-25.15L280.66-25.15L280.66-25.15Q291.38-35.80 300.30-35.80L300.30-35.80L300.30-35.80Q303.76-35.80 304.92-33.39L304.92-33.39L304.92-33.39Q305.23-32.55 305.44-31.97L305.44-31.97L305.44-31.97Q305.65-31.39 305.76-31.39ZM274.36-5.56L274.36-5.56L274.36-5.56Q274.36-1.78 276.99-1.78L276.99-1.78L276.99-1.78Q283.08-1.78 293.58-15.12L293.58-15.12L304.71-30.45L304.71-30.45Q303.87-31.92 301.98-31.92L301.98-31.92L301.98-31.92Q295.57-31.92 284.97-22.00L284.97-22.00L284.97-22.00Q274.36-12.07 274.36-5.56ZM370.96-29.19L370.96-29.19L370.96-29.19Q364.66-29.19 360.36-32.08L360.36-32.08L360.36-32.08Q356.05-34.96 356.05-39.38L356.05-39.38L356.05-39.38Q356.05-44.94 363.30-50.50L363.30-50.50L363.30-50.50Q364.56-51.45 365.19-51.45L365.19-51.45L365.19-51.45Q365.82-51.45 365.82-51.03L365.82-51.03L365.82-51.03Q365.82-49.98 364.14-49.35L364.14-49.35L364.14-49.35Q358.26-44.63 358.26-39.80L358.26-39.80L358.26-39.80Q358.26-36.33 361.41-33.97L361.41-33.97L361.41-33.97Q364.56-31.61 369.28-31.61L369.28-31.61L369.28-31.61Q379.57-31.61 388.71-41.48L388.71-41.48L388.71-41.48Q393.43-46.62 393.43-53.34L393.43-53.34L393.43-53.34Q393.43-60.06 388.39-63.31L388.39-63.31L388.39-63.31Q384.19-66.25 377.05-66.25L377.05-66.25L377.05-66.25Q366.76-66.25 356.37-61.11L356.37-61.11L356.37-61.11Q343.56-54.91 333.22-41.84L333.22-41.84L333.22-41.84Q322.87-28.77 322.87-16.70L322.87-16.70L322.87-16.70Q322.87-7.14 329.38-1.94L329.38-1.94L329.38-1.94Q335.89 3.25 345.55 3.25L345.55 3.25L345.55 3.25Q356.58 3.25 367.18-2.10L367.18-2.10L367.18-2.10Q375.27-6.30 381.15-12.81L381.15-12.81L381.15-12.81Q382.83-14.70 383.77-14.70L383.77-14.70L383.77-14.70Q384.40-14.70 384.40-13.60L384.40-13.60L384.40-13.60Q384.40-12.49 383.25-11.34L383.25-11.34L383.25-11.34Q377.68-5.46 367.18 0L367.18 0L367.18 0Q354.27 6.83 341.20 6.83L341.20 6.83L341.20 6.83Q328.12 6.83 321.72-1.78L321.72-1.78L321.72-1.78Q317.41-7.46 317.41-15.33L317.41-15.33L317.41-15.33Q317.41-18.79 318.25-22.79L318.25-22.79L318.25-22.79Q321.09-36.23 333.16-48.93L333.16-48.93L333.16-48.93Q341.88-58.06 353.85-63.16L353.85-63.16L353.85-63.16Q365.82-68.25 376.53-68.25L376.53-68.25L376.53-68.25Q382.20-68.25 386.40-66.88L386.40-66.88L386.40-66.88Q397.84-63.31 397.84-52.50L397.84-52.50L397.84-52.50Q397.84-45.88 393.96-41.05L393.96-41.05L393.96-41.05Q384.30-29.19 370.96-29.19ZM415.27-0.42L415.27-0.42L415.27-0.42Q409.08-0.42 409.08-7.67L409.08-7.67L409.08-7.67Q409.08-11.76 411.97-16.75L411.97-16.75L411.97-16.75Q414.85-21.73 419.06-28.45L419.06-28.45L419.06-28.45Q405.62-21.73 394.69-8.61L394.69-8.61L394.69-8.61Q388.60 0.53 387.56 0.53L387.56 0.53L387.56 0.53Q384.51 0.53 384.51-1.26L384.51-1.26L384.51-1.26Q384.51-2.21 385.77-4.62L385.77-4.62L385.77-4.62Q395.95-22.79 401.20-31.18L401.20-31.18L401.20-31.18Q413.70-51.24 418.84-52.92L418.84-52.92L418.84-52.92Q419.06-53.02 419.26-53.02L419.26-53.02L419.26-53.02Q420.63-53.02 421.15-50.82L421.15-50.82L421.15-50.82Q420.84-48.61 410.24-34.86L410.24-34.86L410.24-34.86Q399.21-20.89 397.74-16.59L397.74-16.59L397.74-16.59Q401.63-19.43 411.28-26.14L411.28-26.14L411.28-26.14Q421.68-33.39 425.04-33.39L425.04-33.39L425.04-33.39Q428.40-33.39 428.40-30.77L428.40-30.77L428.40-30.77Q428.40-30.34 428.35-30.19L428.35-30.19L428.35-30.19Q428.29-30.03 421.05-20.27L421.05-20.27L421.05-20.27Q413.81-10.50 413.81-5.88L413.81-5.88L413.81-5.88Q413.81-3.46 415.59-3.46L415.59-3.46L415.59-3.46Q421.26-3.67 432.60-17.11L432.60-17.11L432.60-17.11Q433.54-18.06 434.02-18.06L434.02-18.06L434.02-18.06Q434.49-18.06 434.49-17.43L434.49-17.43L434.49-17.43Q434.49-15.33 424.09-6.09L424.09-6.09L424.09-6.09Q417.58-0.42 415.27-0.42ZM435.23 1.36L435.23 1.36L435.23 1.36Q434.07 1.36 433.13 1.05L433.13 1.05L433.13 1.05Q426.41-0.84 426.41-6.51L426.41-6.51L426.41-6.51Q426.41-13.86 435.64-23.52L435.64-23.52L435.64-23.52Q444.88-33.18 452.24-33.18L452.24-33.18L452.24-33.18Q454.65-33.18 456.17-31.87L456.17-31.87L456.17-31.87Q457.69-30.55 457.69-28.66L457.69-28.66L457.69-28.66Q457.69-22.79 448.82-17.43L448.82-17.43L448.82-17.43Q439.95-12.07 434.38-12.07L434.38-12.07L434.38-12.07Q433.55-12.07 432.92-12.29L432.92-12.29L432.92-12.29Q431.34-9.45 431.34-6.30L431.34-6.30L431.34-6.30Q431.34-0.84 436.54-0.84L436.54-0.84L436.54-0.84Q441.74-0.84 450.03-7.88L450.03-7.88L450.03-7.88Q456.44-13.02 460.95-18.79L460.95-18.79L460.95-18.79Q461.89-20.05 462.58-20.05L462.58-20.05L462.58-20.05Q463.26-20.05 463.26-19.43L463.26-19.43L463.26-19.43Q463.26-18.79 462.42-17.64L462.42-17.64L462.42-17.64Q456.75-10.19 448.77-4.41L448.77-4.41L448.77-4.41Q440.79 1.36 435.23 1.36ZM455.07-28.88L455.07-28.88L455.07-28.88Q455.07-30.13 452.39-30.13L452.39-30.13L452.39-30.13Q449.72-30.13 444.78-26.04L444.78-26.04L444.78-26.04Q438.17-20.58 434.49-14.59L434.49-14.59L434.49-14.59Q435.12-14.38 435.86-14.38L435.86-14.38L435.86-14.38Q439.85-14.38 446.51-18.64L446.51-18.64L446.51-18.64Q453.18-22.89 454.86-27.93L454.86-27.93L454.86-27.93Q455.07-28.45 455.07-28.88ZM479.54-3.78L476.18-1.57L476.18-1.57Q473.13 0.21 468.67 0.21L468.67 0.21L468.67 0.21Q464.21 0.21 461.84-2.73L461.84-2.73L461.84-2.73Q459.48-5.67 457.80-12.07L457.80-12.07L457.80-12.07Q455.91-10.19 455.18-10.19L455.18-10.19L455.18-10.19Q454.65-10.19 454.65-10.92L454.65-10.92L454.65-10.92Q454.65-11.65 455.18-12.18L455.18-12.18L455.18-12.18Q458.64-16.48 466.94-24.57L466.94-24.57L480.17-36.96L480.17-36.96Q485.84-42.31 486.88-42.31L486.88-42.31L486.88-42.31Q490.25-42.31 490.25-39.80L490.25-39.80L490.25-39.80Q490.25-38.53 489.25-37.33L489.25-37.33L489.25-37.33Q488.25-36.12 487.78-35.44L487.78-35.44L487.78-35.44Q487.31-34.75 486.78-34.13L486.78-34.13L486.78-34.13Q484.89-30.87 482.95-20.68L482.95-20.68L482.95-20.68Q481.00-10.50 479.96-6.51L479.96-6.51L479.96-6.51Q488.67-6.61 497.91-17.85L497.91-17.85L497.91-17.85Q498.96-18.90 499.49-18.90L499.49-18.90L499.49-18.90Q500.01-18.90 500.01-18.22L500.01-18.22L500.01-18.22Q500.01-17.54 499.06-16.38L499.06-16.38L499.06-16.38Q492.98-9.24 487.73-6.40L487.73-6.40L487.73-6.40Q484.58-4.83 479.54-3.78L479.54-3.78ZM462-13.23L462-13.23L462-13.23Q462-9.66 464.36-7.40L464.36-7.40L464.36-7.40Q466.73-5.14 469.67-5.14L469.67-5.14L469.67-5.14Q472.61-5.14 474.18-6.30L474.18-6.30L474.18-6.30Q476.28-7.46 478.33-15.96L478.33-15.96L478.33-15.96Q480.38-24.46 480.80-30.97L480.80-30.97L481.22-34.55L481.22-34.55Q475.44-30.24 468.88-23.41L468.88-23.41L468.88-23.41Q462.31-16.59 462.11-14.38L462.11-14.38L462.11-14.38Q462-13.75 462-13.23ZM517.34-42.84L517.34-42.84Q518.91-42.84 520.33-41.84L520.33-41.84L520.33-41.84Q521.75-40.84 521.75-39.48L521.75-39.48L521.75-39.48Q521.75-38.12 520.43-37.12L520.43-37.12L520.43-37.12Q519.12-36.12 517.54-36.12L517.54-36.12L517.54-36.12Q515.97-36.12 514.66-37.27L514.66-37.27L514.66-37.27Q513.35-38.43 513.35-39.90L513.35-39.90L513.35-39.90Q513.35-42.84 517.34-42.84L517.34-42.84ZM498.33 1.16L498.33 1.16L498.33 1.16Q492.98 1.16 492.98-5.77L492.98-5.77L492.98-5.77Q492.98-11.45 499.17-21.47L499.17-21.47L499.17-21.47Q505.37-31.50 509.14-31.61L509.14-31.61L509.14-31.61Q510.19-31.61 511.51-30.77L511.51-30.77L511.51-30.77Q512.82-29.92 512.82-29.08L512.82-29.08L512.82-29.08Q512.29-28.35 511.56-27.46L511.56-27.46L511.56-27.46Q510.82-26.56 509.99-25.52L509.99-25.52L509.99-25.52Q509.14-24.46 507.68-22.52L507.68-22.52L507.68-22.52Q506.20-20.58 504.84-18.79L504.84-18.79L504.84-18.79Q496.97-8.61 496.97-4.78L496.97-4.78L496.97-4.78Q496.97-0.94 499.59-0.94L499.59-0.94L499.59-0.94Q501.80-0.94 505.57-3.36L505.57-3.36L505.57-3.36Q514.39-8.82 519.54-15.33L519.54-15.33L519.54-15.33Q521.43-17.75 522.11-17.75L522.11-17.75L522.11-17.75Q522.79-17.75 522.79-16.91L522.79-16.91L522.79-16.91Q522.79-16.06 520.38-13.54L520.38-13.54L520.38-13.54Q517.97-11.03 516.55-9.55L516.55-9.55L516.55-9.55Q515.13-8.08 514.61-7.61L514.61-7.61L514.61-7.61Q514.08-7.14 512.66-5.83L512.66-5.83L512.66-5.83Q511.25-4.51 510.51-3.99L510.51-3.99L510.51-3.99Q509.78-3.46 508.41-2.42L508.41-2.42L508.41-2.42Q507.05-1.36 506.00-0.89L506.00-0.89L506.00-0.89Q504.94-0.42 503.58 0.21L503.58 0.21L503.58 0.21Q501.38 1.16 498.33 1.16Z" fill="url(#editing-gradient-gradient)"></path></g></g><style>text {
  font-size: 64px;
  font-family: Arial Black;
  dominant-baseline: central;
  text-anchor: middle;
}</style></svg>