<?xml version="1.0" encoding="utf-8"?>
<svg width="730.4943359375px" height="214.4px" viewBox="-16.444 38.258 534.508 116.407" style="background: rgba(0, 0, 0, 0);" preserveAspectRatio="xMidYMid" xmlns="http://www.w3.org/2000/svg">
  <defs>
    <linearGradient id="editing-gradient-gradient" x1="0" x2="1" y1="0.5" y2="0.5" gradientUnits="objectBoundingBox">
      <stop offset="0" stop-color="#000000"/>
      <stop offset="1" stop-color="#000000"/>
    </linearGradient>
  </defs>
  <g>
    <g transform="translate(-6.38936185836792, 124.57999849319458)">
      <path d="M134.27 15.38L135.61 17.69L135.61 17.69Q135.45 17.79 134.22 18.41L134.22 18.41L134.22 18.41Q132.99 19.02 130.99 19.74L130.99 19.74L130.99 19.74Q128.99 20.46 126.43 21.05L126.43 21.05L126.43 21.05Q123.87 21.64 121.10 21.64L121.10 21.64L121.10 21.64Q116.59 21.64 113.00 20.05L113.00 20.05L113.00 20.05Q109.41 18.46 106.92 15.56L106.92 15.56L106.92 15.56Q104.44 12.66 103.10 8.59L103.10 8.59L103.10 8.59Q101.77 4.51 101.77-0.46L101.77-0.46L101.77-0.46Q101.77-5.23 102.95-10.95L102.95-10.95L102.95-10.95Q104.13-16.66 106.03-22.71L106.03-22.71L106.03-22.71Q107.92-28.76 110.31-34.81L110.31-34.81L110.31-34.81Q112.69-40.86 115.13-46.32L115.13-46.32L115.13-46.32Q117.56-51.78 119.77-56.32L119.77-56.32L119.77-56.32Q121.97-60.86 123.56-63.88L123.56-63.88L123.56-63.88Q120.69-60.60 117.00-56.32L117.00-56.32L117.00-56.32Q113.31-52.04 109.13-46.94L109.13-46.94L109.13-46.94Q104.95-41.84 100.44-36.07L100.44-36.07L100.44-36.07Q95.93-30.30 91.34-24.07L91.34-24.07L91.34-24.07Q86.75-17.84 82.24-11.30L82.24-11.30L82.24-11.30Q77.72-4.77 73.62 1.85L73.62 1.85L71.16 1.03L71.16 1.03Q71.93-7.33 73.70-15.56L73.70-15.56L73.70-15.56Q75.47-23.79 77.70-31.40L77.70-31.40L77.70-31.40Q79.93-39.02 82.42-45.71L82.42-45.71L82.42-45.71Q84.90-52.40 87.16-57.68L87.16-57.68L87.16-57.68Q83.72-52.96 80.31-47.45L80.31-47.45L80.31-47.45Q76.90-41.94 73.42-36.12L73.42-36.12L73.42-36.12Q69.93-30.30 66.24-24.43L66.24-24.43L66.24-24.43Q62.55-18.56 58.55-13.15L58.55-13.15L58.55-13.15Q54.55-7.74 50.12-3.05L50.12-3.05L50.12-3.05Q45.68 1.64 40.68 5.10L40.68 5.10L40.68 5.10Q35.68 8.56 30.02 10.56L30.02 10.56L30.02 10.56Q24.35 12.56 17.89 12.56L17.89 12.56L17.89 12.56Q12.92 12.56 8.87 11.07L8.87 11.07L8.87 11.07Q4.82 9.59 1.92 7.00L1.92 7.00L1.92 7.00Q-0.97 4.41-2.54 0.92L-2.54 0.92L-2.54 0.92Q-4.10-2.56-4.10-6.61L-4.10-6.61L-4.10-6.61Q-4.10-10.56-2.85-13.77L-2.85-13.77L-2.85-13.77Q-1.59-16.97 0.51-19.46L0.51-19.46L0.51-19.46Q2.61-21.94 5.41-23.76L5.41-23.76L5.41-23.76Q8.20-25.58 11.28-26.76L11.28-26.76L11.28-26.76Q14.36-27.94 17.51-28.51L17.51-28.51L17.51-28.51Q20.66-29.07 23.53-29.07L23.53-29.07L23.53-29.07Q29.48-29.07 34.91-27.66L34.91-27.66L34.91-27.66Q40.35-26.25 45.37-22.66L45.37-22.66L43.58-20.66L43.58-20.66Q43.53-20.71 42.25-21.61L42.25-21.61L42.25-21.61Q40.96-22.51 38.55-23.58L38.55-23.58L38.55-23.58Q36.15-24.66 32.58-25.53L32.58-25.53L32.58-25.53Q29.02-26.40 24.46-26.40L24.46-26.40L24.46-26.40Q20.05-26.40 15.92-25.22L15.92-25.22L15.92-25.22Q11.79-24.05 8.64-21.66L8.64-21.66L8.64-21.66Q5.49-19.28 3.59-15.66L3.59-15.66L3.59-15.66Q1.69-12.05 1.69-7.18L1.69-7.18L1.69-7.18Q1.69-3.69 3.05-0.72L3.05-0.72L3.05-0.72Q4.41 2.26 6.82 4.43L6.82 4.43L6.82 4.43Q9.23 6.61 12.61 7.84L12.61 7.84L12.61 7.84Q16.00 9.07 20.10 9.07L20.10 9.07L20.10 9.07Q26.25 9.07 31.89 6.46L31.89 6.46L31.89 6.46Q37.53 3.85 42.76-0.62L42.76-0.62L42.76-0.62Q47.99-5.08 52.83-11.02L52.83-11.02L52.83-11.02Q57.68-16.97 62.16-23.58L62.16-23.58L62.16-23.58Q66.65-30.20 70.85-37.17L70.85-37.17L70.85-37.17Q75.06-44.14 79.01-50.63L79.01-50.63L79.01-50.63Q82.95-57.11 86.70-62.78L86.70-62.78L86.70-62.78Q90.44-68.44 94.03-72.55L94.03-72.55L96.34-71.16L96.34-71.16Q94.08-64.29 92.44-59.09L92.44-59.09L92.44-59.09Q90.80-53.88 89.59-49.94L89.59-49.94L89.59-49.94Q88.39-45.99 87.54-43.12L87.54-43.12L87.54-43.12Q86.70-40.25 86.08-37.99L86.08-37.99L86.08-37.99Q85.47-35.73 84.98-33.91L84.98-33.91L84.98-33.91Q84.49-32.09 84.01-30.30L84.01-30.30L84.01-30.30Q83.52-28.51 82.90-26.51L82.90-26.51L82.90-26.51Q82.29-24.51 81.42-21.87L81.42-21.87L81.42-21.87Q80.54-19.23 79.37-15.77L79.37-15.77L79.37-15.77Q78.19-12.30 76.49-7.59L76.49-7.59L76.49-7.59Q80.80-14.10 85.34-20.41L85.34-20.41L85.34-20.41Q89.88-26.71 94.39-32.61L94.39-32.61L94.39-32.61Q98.90-38.50 103.23-43.89L103.23-43.89L103.23-43.89Q107.56-49.27 111.43-53.88L111.43-53.88L111.43-53.88Q115.31-58.50 118.56-62.27L118.56-62.27L118.56-62.27Q121.82-66.04 124.23-68.70L124.23-68.70L124.23-68.70Q126.64-71.37 127.99-72.85L127.99-72.85L127.99-72.85Q129.35-74.34 129.40-74.39L129.40-74.39L131.56-72.80L131.56-72.80Q128.53-65.32 125.56-57.81L125.56-57.81L125.56-57.81Q122.59-50.30 119.84-43.17L119.84-43.17L119.84-43.17Q117.10-36.04 114.74-29.43L114.74-29.43L114.74-29.43Q112.38-22.81 110.64-17.05L110.64-17.05L110.64-17.05Q108.90-11.28 107.90-6.54L107.90-6.54L107.90-6.54Q106.90-1.79 106.90 1.59L106.90 1.59L106.90 1.59Q106.90 5.59 107.85 8.82L107.85 8.82L107.85 8.82Q108.79 12.05 110.59 14.30L110.59 14.30L110.59 14.30Q112.38 16.56 115.02 17.76L115.02 17.76L115.02 17.76Q117.66 18.97 121.00 18.97L121.00 18.97L121.00 18.97Q123.51 18.97 125.89 18.41L125.89 18.41L125.89 18.41Q128.28 17.84 130.12 17.18L130.12 17.18L130.12 17.18Q131.97 16.51 133.10 15.94L133.10 15.94L133.10 15.94Q134.22 15.38 134.27 15.38L134.27 15.38ZM130.79-11.69L130.79-11.69L130.79-11.69Q130.69-11.07 130.63-10.46L130.63-10.46L130.63-10.46Q130.58-9.84 130.58-9.23L130.58-9.23L130.58-9.23Q130.58-7.38 131.12-5.72L131.12-5.72L131.12-5.72Q131.66-4.05 132.71-2.79L132.71-2.79L132.71-2.79Q133.76-1.54 135.33-0.82L135.33-0.82L135.33-0.82Q136.89-0.10 138.89-0.10L138.89-0.10L138.89-0.10Q145.61-0.10 151.86-4.67L151.86-4.67L151.86-4.67Q158.12-9.23 164.32-19.12L164.32-19.12L166.06-17.59L166.06-17.59Q162.68-11.95 159.19-8.07L159.19-8.07L159.19-8.07Q155.71-4.20 152.24-1.79L152.24-1.79L152.24-1.79Q148.78 0.62 145.45 1.69L145.45 1.69L145.45 1.69Q142.12 2.77 139.09 2.77L139.09 2.77L139.09 2.77Q136.89 2.77 134.43 2.15L134.43 2.15L134.43 2.15Q131.97 1.54 129.89 0.10L129.89 0.10L129.89 0.10Q127.81-1.33 126.46-3.74L126.46-3.74L126.46-3.74Q125.10-6.15 125.10-9.74L125.10-9.74L125.10-9.74Q125.10-13.59 126.41-17.15L126.41-17.15L126.41-17.15Q127.71-20.71 129.81-23.79L129.81-23.79L129.81-23.79Q131.92-26.87 134.63-29.40L134.63-29.40L134.63-29.40Q137.35-31.94 140.15-33.74L140.15-33.74L140.15-33.74Q142.94-35.53 145.61-36.53L145.61-36.53L145.61-36.53Q148.27-37.53 150.32-37.53L150.32-37.53L150.32-37.53Q151.66-37.53 153.04-37.12L153.04-37.12L153.04-37.12Q154.42-36.71 155.53-35.84L155.53-35.84L155.53-35.84Q156.63-34.97 157.32-33.53L157.32-33.53L157.32-33.53Q158.01-32.09 158.01-30.10L158.01-30.10L158.01-30.10Q158.01-27.38 156.76-24.99L156.76-24.99L156.76-24.99Q155.50-22.61 153.40-20.58L153.40-20.58L153.40-20.58Q151.30-18.56 148.53-16.94L148.53-16.94L148.53-16.94Q145.76-15.33 142.73-14.20L142.73-14.20L142.73-14.20Q139.71-13.07 136.63-12.41L136.63-12.41L136.63-12.41Q133.56-11.74 130.79-11.69ZM131.20-13.89L131.20-13.89L131.20-13.89Q134.63-14.25 137.66-15.33L137.66-15.33L137.66-15.33Q140.68-16.41 143.20-17.97L143.20-17.97L143.20-17.97Q145.71-19.53 147.68-21.38L147.68-21.38L147.68-21.38Q149.66-23.23 150.99-25.12L150.99-25.12L150.99-25.12Q152.32-27.02 153.04-28.76L153.04-28.76L153.04-28.76Q153.76-30.51 153.76-31.89L153.76-31.89L153.76-31.89Q153.76-33.27 153.01-34.09L153.01-34.09L153.01-34.09Q152.27-34.91 151.25-34.91L151.25-34.91L151.25-34.91Q148.99-34.91 146.17-33.30L146.17-33.30L146.17-33.30Q143.35-31.68 140.53-28.84L140.53-28.84L140.53-28.84Q137.71-25.99 135.22-22.15L135.22-22.15L135.22-22.15Q132.74-18.30 131.20-13.89ZM201.44-74.60L201.44-74.60L201.44-74.60Q203.23-74.60 204.44-73.73L204.44-73.73L204.44-73.73Q205.64-72.85 205.64-70.55L205.64-70.55L205.64-70.55Q205.64-68.96 205.00-66.75L205.00-66.75L205.00-66.75Q204.36-64.55 203.26-61.96L203.26-61.96L203.26-61.96Q202.16-59.37 200.67-56.52L200.67-56.52L200.67-56.52Q199.18-53.68 197.46-50.86L197.46-50.86L197.46-50.86Q195.75-48.04 193.88-45.37L193.88-45.37L193.88-45.37Q192.00-42.71 190.16-40.45L190.16-40.45L190.16-40.45Q186.47-35.89 183.78-32.76L183.78-32.76L183.78-32.76Q181.08-29.63 179.14-27.45L179.14-27.45L179.14-27.45Q177.19-25.28 175.85-23.92L175.85-23.92L175.85-23.92Q174.52-22.56 173.50-21.58L173.50-21.58L173.50-21.58Q172.47-20.61 171.60-19.82L171.60-19.82L171.60-19.82Q170.73-19.02 169.80-18.05L169.80-18.05L169.80-18.05Q169.39-16.10 169.42-14.33L169.42-14.33L169.42-14.33Q169.45-12.56 169.45-11.07L169.45-11.07L169.45-11.07Q169.45-6.61 170.88-4.46L170.88-4.46L170.88-4.46Q172.32-2.31 174.93-2.31L174.93-2.31L174.93-2.31Q176.67-2.31 178.44-3.20L178.44-3.20L178.44-3.20Q180.21-4.10 181.96-5.54L181.96-5.54L181.96-5.54Q183.70-6.97 185.34-8.79L185.34-8.79L185.34-8.79Q186.98-10.61 188.44-12.48L188.44-12.48L188.44-12.48Q189.90-14.36 191.08-16.10L191.08-16.10L191.08-16.10Q192.26-17.84 193.13-19.12L193.13-19.12L195.03-17.69L195.03-17.69Q194.88-17.48 194.03-16.07L194.03-16.07L194.03-16.07Q193.18-14.66 191.80-12.66L191.80-12.66L191.80-12.66Q190.42-10.66 188.52-8.38L188.52-8.38L188.52-8.38Q186.62-6.10 184.42-4.15L184.42-4.15L184.42-4.15Q182.21-2.20 179.78-0.92L179.78-0.92L179.78-0.92Q177.34 0.36 174.83 0.36L174.83 0.36L174.83 0.36Q172.73 0.36 170.80-0.44L170.80-0.44L170.80-0.44Q168.88-1.23 167.42-2.95L167.42-2.95L167.42-2.95Q165.96-4.67 165.06-7.33L165.06-7.33L165.06-7.33Q164.17-10.00 164.17-13.74L164.17-13.74L164.17-13.74Q164.17-18.41 165.27-23.51L165.27-23.51L165.27-23.51Q166.37-28.61 168.27-33.76L168.27-33.76L168.27-33.76Q170.16-38.91 172.73-43.94L172.73-43.94L172.73-43.94Q175.29-48.96 178.19-53.50L178.19-53.50L178.19-53.50Q181.08-58.04 184.24-61.91L184.24-61.91L184.24-61.91Q187.39-65.78 190.44-68.60L190.44-68.60L190.44-68.60Q193.49-71.42 196.31-73.01L196.31-73.01L196.31-73.01Q199.13-74.60 201.44-74.60ZM170.73-22.61L170.73-22.61L170.73-22.61Q175.09-27.12 179.16-31.76L179.16-31.76L179.16-31.76Q183.24-36.40 186.80-40.94L186.80-40.94L186.80-40.94Q190.36-45.48 193.34-49.76L193.34-49.76L193.34-49.76Q196.31-54.04 198.41-57.83L198.41-57.83L198.41-57.83Q200.52-61.63 201.69-64.75L201.69-64.75L201.69-64.75Q202.87-67.88 202.87-70.14L202.87-70.14L202.87-70.14Q202.87-70.55 202.46-71.24L202.46-71.24L202.46-71.24Q202.05-71.93 201.49-71.93L201.49-71.93L201.49-71.93Q199.90-71.93 197.29-69.83L197.29-69.83L197.29-69.83Q194.67-67.73 191.62-64.11L191.62-64.11L191.62-64.11Q188.57-60.50 185.31-55.68L185.31-55.68L185.31-55.68Q182.06-50.86 179.19-45.37L179.19-45.37L179.19-45.37Q176.32-39.89 174.06-34.04L174.06-34.04L174.06-34.04Q171.80-28.20 170.73-22.61ZM216.15-45.48L216.15-45.48L216.15-45.48Q216.15-44.45 215.64-43.35L215.64-43.35L215.64-43.35Q215.13-42.25 214.33-41.37L214.33-41.37L214.33-41.37Q213.54-40.50 212.56-39.94L212.56-39.94L212.56-39.94Q211.59-39.38 210.62-39.38L210.62-39.38L210.62-39.38Q209.74-39.38 209.28-40.02L209.28-40.02L209.28-40.02Q208.82-40.66 208.82-41.58L208.82-41.58L208.82-41.58Q208.82-42.40 209.13-43.53L209.13-43.53L209.13-43.53Q209.44-44.66 210.05-45.66L210.05-45.66L210.05-45.66Q210.67-46.66 211.54-47.37L211.54-47.37L211.54-47.37Q212.41-48.09 213.54-48.09L213.54-48.09L213.54-48.09Q214.61-48.09 215.38-47.27L215.38-47.27L215.38-47.27Q216.15-46.45 216.15-45.48ZM204.92-34.81L206.56-34.09L206.56-34.09Q205.90-32.76 204.69-30.58L204.69-30.58L204.69-30.58Q203.49-28.40 202.10-25.81L202.10-25.81L202.10-25.81Q200.72-23.23 199.28-20.38L199.28-20.38L199.28-20.38Q197.85-17.53 196.70-14.84L196.70-14.84L196.70-14.84Q195.54-12.15 194.82-9.79L194.82-9.79L194.82-9.79Q194.11-7.43 194.11-5.79L194.11-5.79L194.11-5.79Q194.11-4.31 194.72-3.77L194.72-3.77L194.72-3.77Q195.34-3.23 196.46-3.23L196.46-3.23L196.46-3.23Q198.57-3.23 200.57-4.61L200.57-4.61L200.57-4.61Q202.57-6.00 204.54-8.23L204.54-8.23L204.54-8.23Q206.51-10.46 208.41-13.33L208.41-13.33L208.41-13.33Q210.31-16.20 212.20-19.12L212.20-19.12L214.05-17.69L214.05-17.69Q212.56-15.02 210.69-12.00L210.69-12.00L210.69-12.00Q208.82-8.97 206.51-6.38L206.51-6.38L206.51-6.38Q204.21-3.79 201.44-2.10L201.44-2.10L201.44-2.10Q198.67-0.41 195.39-0.41L195.39-0.41L195.39-0.41Q192.31-0.41 190.67-2.26L190.67-2.26L190.67-2.26Q189.03-4.10 189.03-7.02L189.03-7.02L189.03-7.02Q189.03-10.46 190.62-14.20L190.62-14.20L190.62-14.20Q192.21-17.94 194.59-21.61L194.59-21.61L194.59-21.61Q196.98-25.28 199.77-28.66L199.77-28.66L199.77-28.66Q202.57-32.04 204.92-34.81L204.92-34.81ZM228.66-40.25L228.66-40.25L228.66-40.25Q228.41-39.79 228.00-39.25L228.00-39.25L228.00-39.25Q227.59-38.71 227.20-38.02L227.20-38.02L227.20-38.02Q226.82-37.32 226.53-36.40L226.53-36.40L226.53-36.40Q226.25-35.48 226.25-34.20L226.25-34.20L226.25-34.20Q226.25-33.12 226.79-31.27L226.79-31.27L226.79-31.27Q227.33-29.43 227.94-27.04L227.94-27.04L227.94-27.04Q228.56-24.66 229.10-21.87L229.10-21.87L229.10-21.87Q229.64-19.07 229.64-16.10L229.64-16.10L229.64-16.10Q229.64-11.74 228.46-8.41L228.46-8.41L228.46-8.41Q227.28-5.08 225.33-2.72L225.33-2.72L225.33-2.72Q229.33-4.87 233.17-8.90L233.17-8.90L233.17-8.90Q237.02-12.92 240.92-19.12L240.92-19.12L242.66-17.59L242.66-17.59Q240.45-13.95 237.66-10.38L237.66-10.38L237.66-10.38Q234.87-6.82 231.53-3.97L231.53-3.97L231.53-3.97Q228.20-1.13 224.36 0.64L224.36 0.64L224.36 0.64Q220.51 2.41 216.20 2.41L216.20 2.41L216.20 2.41Q212.36 2.41 209.72 0.59L209.72 0.59L209.72 0.59Q207.08-1.23 206.46-4.87L206.46-4.87L208.31-5.23L208.31-5.23Q208.31-4.92 208.59-4.23L208.59-4.23L208.59-4.23Q208.87-3.54 209.49-2.87L209.49-2.87L209.49-2.87Q210.10-2.20 211.15-1.69L211.15-1.69L211.15-1.69Q212.20-1.18 213.74-1.18L213.74-1.18L213.74-1.18Q215.79-1.18 217.38-2.13L217.38-2.13L217.38-2.13Q218.97-3.08 220.15-4.61L220.15-4.61L220.15-4.61Q221.33-6.15 222.15-8.13L222.15-8.13L222.15-8.13Q222.97-10.10 223.46-12.20L223.46-12.20L223.46-12.20Q223.95-14.30 224.15-16.30L224.15-16.30L224.15-16.30Q224.36-18.30 224.36-19.94L224.36-19.94L224.36-19.94Q224.36-21.58 224.23-23.58L224.23-23.58L224.23-23.58Q224.10-25.58 223.95-27.40L223.95-27.40L223.95-27.40Q223.79-29.22 223.66-30.58L223.66-30.58L223.66-30.58Q223.54-31.94 223.54-32.35L223.54-32.35L223.54-32.45L223.54-32.45Q222.87-31.74 221.95-30.35L221.95-30.35L221.95-30.35Q221.02-28.97 219.97-27.33L219.97-27.33L219.97-27.33Q218.92-25.69 217.87-23.99L217.87-23.99L217.87-23.99Q216.82-22.30 215.97-20.92L215.97-20.92L215.97-20.92Q215.13-19.53 214.59-18.64L214.59-18.64L214.59-18.64Q214.05-17.74 214.05-17.69L214.05-17.69L212.20-19.12L212.20-19.12Q212.26-19.17 213.49-21.33L213.49-21.33L213.49-21.33Q214.72-23.48 216.74-26.79L216.74-26.79L216.74-26.79Q218.77-30.10 221.33-34.12L221.33-34.12L221.33-34.12Q223.89-38.14 226.61-41.94L226.61-41.94L228.66-40.25ZM257.37-40.25L257.37-40.25L257.37-40.25Q257.12-39.79 256.71-39.25L256.71-39.25L256.71-39.25Q256.30-38.71 255.91-38.02L255.91-38.02L255.91-38.02Q255.53-37.32 255.25-36.40L255.25-36.40L255.25-36.40Q254.96-35.48 254.96-34.20L254.96-34.20L254.96-34.20Q254.96-33.12 255.50-31.27L255.50-31.27L255.50-31.27Q256.04-29.43 256.66-27.04L256.66-27.04L256.66-27.04Q257.27-24.66 257.81-21.87L257.81-21.87L257.81-21.87Q258.35-19.07 258.35-16.10L258.35-16.10L258.35-16.10Q258.35-11.74 257.17-8.41L257.17-8.41L257.17-8.41Q255.99-5.08 254.04-2.72L254.04-2.72L254.04-2.72Q258.04-4.87 261.88-8.90L261.88-8.90L261.88-8.90Q265.73-12.92 269.63-19.12L269.63-19.12L271.37-17.59L271.37-17.59Q269.17-13.95 266.37-10.38L266.37-10.38L266.37-10.38Q263.58-6.82 260.24-3.97L260.24-3.97L260.24-3.97Q256.91-1.13 253.07 0.64L253.07 0.64L253.07 0.64Q249.22 2.41 244.91 2.41L244.91 2.41L244.91 2.41Q241.07 2.41 238.43 0.59L238.43 0.59L238.43 0.59Q235.79-1.23 235.17-4.87L235.17-4.87L237.02-5.23L237.02-5.23Q237.02-4.92 237.30-4.23L237.30-4.23L237.30-4.23Q237.58-3.54 238.20-2.87L238.20-2.87L238.20-2.87Q238.81-2.20 239.86-1.69L239.86-1.69L239.86-1.69Q240.92-1.18 242.45-1.18L242.45-1.18L242.45-1.18Q244.50-1.18 246.09-2.13L246.09-2.13L246.09-2.13Q247.68-3.08 248.86-4.61L248.86-4.61L248.86-4.61Q250.04-6.15 250.86-8.13L250.86-8.13L250.86-8.13Q251.68-10.10 252.17-12.20L252.17-12.20L252.17-12.20Q252.66-14.30 252.86-16.30L252.86-16.30L252.86-16.30Q253.07-18.30 253.07-19.94L253.07-19.94L253.07-19.94Q253.07-21.58 252.94-23.58L252.94-23.58L252.94-23.58Q252.81-25.58 252.66-27.40L252.66-27.40L252.66-27.40Q252.50-29.22 252.37-30.58L252.37-30.58L252.37-30.58Q252.25-31.94 252.25-32.35L252.25-32.35L252.25-32.45L252.25-32.45Q251.58-31.74 250.66-30.35L250.66-30.35L250.66-30.35Q249.73-28.97 248.68-27.33L248.68-27.33L248.68-27.33Q247.63-25.69 246.58-23.99L246.58-23.99L246.58-23.99Q245.53-22.30 244.68-20.92L244.68-20.92L244.68-20.92Q243.84-19.53 243.30-18.64L243.30-18.64L243.30-18.64Q242.76-17.74 242.76-17.69L242.76-17.69L240.92-19.12L240.92-19.12Q240.97-19.17 242.20-21.33L242.20-21.33L242.20-21.33Q243.43-23.48 245.45-26.79L245.45-26.79L245.45-26.79Q247.48-30.10 250.04-34.12L250.04-34.12L250.04-34.12Q252.60-38.14 255.32-41.94L255.32-41.94L257.37-40.25ZM308.75-34.81L310.39-34.09L310.39-34.09Q309.72-32.76 308.51-30.61L308.51-30.61L308.51-30.61Q307.31-28.45 305.93-25.87L305.93-25.87L305.93-25.87Q304.54-23.28 303.13-20.46L303.13-20.46L303.13-20.46Q301.72-17.64 300.57-14.95L300.57-14.95L300.57-14.95Q299.41-12.25 298.67-9.87L298.67-9.87L298.67-9.87Q297.93-7.49 297.93-5.84L297.93-5.84L297.93-5.84Q297.93-4.20 298.57-3.72L298.57-3.72L298.57-3.72Q299.21-3.23 300.23-3.23L300.23-3.23L300.23-3.23Q301.72-3.23 303.28-4.10L303.28-4.10L303.28-4.10Q304.85-4.97 306.36-6.36L306.36-6.36L306.36-6.36Q307.87-7.74 309.31-9.48L309.31-9.48L309.31-9.48Q310.74-11.23 312.00-13.00L312.00-13.00L312.00-13.00Q313.26-14.77 314.28-16.38L314.28-16.38L314.28-16.38Q315.31-18.00 316.03-19.12L316.03-19.12L317.87-17.69L317.87-17.69Q317.00-16.05 315.82-14.15L315.82-14.15L315.82-14.15Q314.64-12.25 313.23-10.33L313.23-10.33L313.23-10.33Q311.82-8.41 310.18-6.61L310.18-6.61L310.18-6.61Q308.54-4.82 306.72-3.44L306.72-3.44L306.72-3.44Q304.90-2.05 302.90-1.23L302.90-1.23L302.90-1.23Q300.90-0.41 298.80-0.41L298.80-0.41L298.80-0.41Q295.72-0.41 294.29-2.26L294.29-2.26L294.29-2.26Q292.85-4.10 292.85-7.02L292.85-7.02L292.85-7.02Q292.85-7.23 292.88-7.92L292.88-7.92L292.88-7.92Q292.90-8.61 293.01-9.02L293.01-9.02L293.01-9.02Q290.44-5.79 288.11-3.69L288.11-3.69L288.11-3.69Q285.78-1.59 283.60-0.36L283.60-0.36L283.60-0.36Q281.42 0.87 279.39 1.36L279.39 1.36L279.39 1.36Q277.37 1.85 275.52 1.85L275.52 1.85L275.52 1.85Q273.57 1.85 271.86 1.20L271.86 1.20L271.86 1.20Q270.14 0.56 268.83-0.67L268.83-0.67L268.83-0.67Q267.52-1.90 266.78-3.69L266.78-3.69L266.78-3.69Q266.04-5.49 266.04-7.84L266.04-7.84L266.04-7.84Q266.04-10.77 267.34-14.53L267.34-14.53L267.34-14.53Q268.65-18.30 271.98-22.66L271.98-22.66L271.98-22.66Q274.80-26.40 277.86-28.97L277.86-28.97L277.86-28.97Q280.91-31.53 283.85-33.09L283.85-33.09L283.85-33.09Q286.80-34.66 289.47-35.32L289.47-35.32L289.47-35.32Q292.13-35.99 294.24-35.99L294.24-35.99L294.24-35.99Q298.95-35.99 301.36-34.43L301.36-34.43L301.36-34.43Q303.77-32.86 304.28-29.63L304.28-29.63L304.28-29.63Q305.31-30.92 306.44-32.20L306.44-32.20L306.44-32.20Q307.57-33.48 308.75-34.81L308.75-34.81ZM294.65-14.61L294.65-14.61L294.65-14.61Q295.31-15.69 296.29-17.35L296.29-17.35L296.29-17.35Q297.26-19.02 298.34-20.79L298.34-20.79L298.34-20.79Q299.41-22.56 300.44-24.20L300.44-24.20L300.44-24.20Q301.46-25.84 302.23-26.97L302.23-26.97L302.23-26.97Q302.23-27.43 302.11-28.45L302.11-28.45L302.11-28.45Q301.98-29.48 301.41-30.53L301.41-30.53L301.41-30.53Q300.85-31.58 299.62-32.35L299.62-32.35L299.62-32.35Q298.39-33.12 296.18-33.12L296.18-33.12L296.18-33.12Q294.59-33.12 292.62-32.63L292.62-32.63L292.62-32.63Q290.65-32.15 288.42-30.99L288.42-30.99L288.42-30.99Q286.19-29.84 283.83-27.94L283.83-27.94L283.83-27.94Q281.47-26.04 279.11-23.23L279.11-23.23L279.11-23.23Q275.57-18.97 273.65-14.69L273.65-14.69L273.65-14.69Q271.73-10.41 271.73-6.97L271.73-6.97L271.73-6.97Q271.73-4.05 273.06-2.46L273.06-2.46L273.06-2.46Q274.39-0.87 276.86-0.87L276.86-0.87L276.86-0.87Q279.68-0.87 282.14-2.13L282.14-2.13L282.14-2.13Q284.60-3.38 286.75-5.38L286.75-5.38L286.75-5.38Q288.90-7.38 290.85-9.82L290.85-9.82L290.85-9.82Q292.80-12.25 294.65-14.61ZM348.84-35.32L348.84-35.32L348.84-35.32Q348.89-35.22 349.61-34.63L349.61-34.63L349.61-34.63Q350.32-34.04 351.63-33.33L351.63-33.33L351.63-33.33Q352.94-32.61 354.84-32.04L354.84-32.04L354.84-32.04Q356.73-31.48 359.14-31.48L359.14-31.48L359.14-31.48Q363.19-31.48 366.78-33.02L366.78-33.02L366.78-33.02Q370.37-34.56 373.42-37.07L373.42-37.07L373.42-37.07Q376.47-39.58 378.91-42.81L378.91-42.81L378.91-42.81Q381.34-46.04 383.03-49.42L383.03-49.42L383.03-49.42Q384.73-52.81 385.65-56.09L385.65-56.09L385.65-56.09Q386.57-59.37 386.57-61.98L386.57-61.98L386.57-61.98Q386.57-65.11 385.65-67.42L385.65-67.42L385.65-67.42Q384.73-69.73 383.16-71.21L383.16-71.21L383.16-71.21Q381.60-72.70 379.47-73.42L379.47-73.42L379.47-73.42Q377.34-74.14 374.88-74.14L374.88-74.14L374.88-74.14Q370.01-74.14 365.22-72.42L365.22-72.42L365.22-72.42Q360.42-70.70 355.91-67.73L355.91-67.73L355.91-67.73Q351.40-64.75 347.25-60.73L347.25-60.73L347.25-60.73Q343.10-56.70 339.51-52.09L339.51-52.09L339.51-52.09Q335.92-47.48 333.00-42.48L333.00-42.48L333.00-42.48Q330.07-37.48 328.00-32.56L328.00-32.56L328.00-32.56Q325.92-27.63 324.79-22.99L324.79-22.99L324.79-22.99Q323.66-18.35 323.66-14.46L323.66-14.46L323.66-14.46Q323.66-9.95 324.97-5.95L324.97-5.95L324.97-5.95Q326.28-1.95 328.89 1.03L328.89 1.03L328.89 1.03Q331.51 4.00 335.43 5.72L335.43 5.72L335.43 5.72Q339.35 7.43 344.58 7.43L344.58 7.43L344.58 7.43Q349.25 7.43 354.27 6.00L354.27 6.00L354.27 6.00Q359.30 4.56 364.30 1.38L364.30 1.38L364.30 1.38Q369.29-1.79 374.17-6.84L374.17-6.84L374.17-6.84Q379.04-11.89 383.50-19.12L383.50-19.12L385.34-17.69L385.34-17.69Q380.52-9.84 375.29-4.51L375.29-4.51L375.29-4.51Q370.06 0.82 364.83 4.08L364.83 4.08L364.83 4.08Q359.60 7.33 354.53 8.74L354.53 8.74L354.53 8.74Q349.45 10.15 344.89 10.15L344.89 10.15L344.89 10.15Q338.33 10.15 333.30 7.82L333.30 7.82L333.30 7.82Q328.28 5.49 324.90 1.69L324.90 1.69L324.90 1.69Q321.51-2.10 319.79-6.95L319.79-6.95L319.79-6.95Q318.08-11.79 318.08-16.82L318.08-16.82L318.08-16.82Q318.08-21.12 319.28-25.99L319.28-25.99L319.28-25.99Q320.49-30.86 322.69-35.89L322.69-35.89L322.69-35.89Q324.90-40.91 328.00-45.94L328.00-45.94L328.00-45.94Q331.10-50.96 334.92-55.55L334.92-55.55L334.92-55.55Q338.74-60.14 343.20-64.09L343.20-64.09L343.20-64.09Q347.66-68.03 352.55-70.93L352.55-70.93L352.55-70.93Q357.45-73.83 362.66-75.49L362.66-75.49L362.66-75.49Q367.86-77.16 373.24-77.16L373.24-77.16L373.24-77.16Q376.63-77.16 379.73-76.21L379.73-76.21L379.73-76.21Q382.83-75.26 385.19-73.21L385.19-73.21L385.19-73.21Q387.55-71.16 388.93-67.96L388.93-67.96L388.93-67.96Q390.31-64.75 390.31-60.24L390.31-60.24L390.31-60.24Q390.31-57.22 389.39-53.68L389.39-53.68L389.39-53.68Q388.47-50.14 386.70-46.58L386.70-46.58L386.70-46.58Q384.93-43.02 382.39-39.68L382.39-39.68L382.39-39.68Q379.86-36.35 376.65-33.81L376.65-33.81L376.65-33.81Q373.45-31.27 369.58-29.74L369.58-29.74L369.58-29.74Q365.71-28.20 361.35-28.20L361.35-28.20L361.35-28.20Q356.68-28.20 353.22-29.76L353.22-29.76L353.22-29.76Q349.76-31.33 347.30-33.63L347.30-33.63L348.84-35.32ZM397.24-33.74L390.98-20.05L390.98-20.05Q393.70-23.74 396.62-26.84L396.62-26.84L396.62-26.84Q399.54-29.94 402.52-32.20L402.52-32.20L402.52-32.20Q405.49-34.45 408.39-35.71L408.39-35.71L408.39-35.71Q411.28-36.97 414.00-36.97L414.00-36.97L414.00-36.97Q415.85-36.97 417.05-36.40L417.05-36.40L417.05-36.40Q418.26-35.84 418.95-34.94L418.95-34.94L418.95-34.94Q419.64-34.04 419.92-32.97L419.92-32.97L419.92-32.97Q420.21-31.89 420.21-30.81L420.21-30.81L420.21-30.81Q420.21-28.97 419.44-26.84L419.44-26.84L419.44-26.84Q418.67-24.71 417.51-22.40L417.51-22.40L417.51-22.40Q416.36-20.10 415.03-17.69L415.03-17.69L415.03-17.69Q413.69-15.28 412.54-12.97L412.54-12.97L412.54-12.97Q411.39-10.66 410.62-8.49L410.62-8.49L410.62-8.49Q409.85-6.31 409.85-4.41L409.85-4.41L409.85-4.41Q409.85-3.23 410.39-2.23L410.39-2.23L410.39-2.23Q410.93-1.23 412.31-1.23L412.31-1.23L412.31-1.23Q413.95-1.23 415.95-2.90L415.95-2.90L415.95-2.90Q417.95-4.56 420.03-7.15L420.03-7.15L420.03-7.15Q422.10-9.74 424.18-12.92L424.18-12.92L424.18-12.92Q426.25-16.10 428.05-19.12L428.05-19.12L429.90-17.69L429.90-17.69Q429.33-16.92 428.36-15.20L428.36-15.20L428.36-15.20Q427.38-13.48 426.08-11.36L426.08-11.36L426.08-11.36Q424.77-9.23 423.15-6.97L423.15-6.97L423.15-6.97Q421.54-4.72 419.72-2.85L419.72-2.85L419.72-2.85Q417.90-0.97 415.90 0.23L415.90 0.23L415.90 0.23Q413.90 1.44 411.85 1.44L411.85 1.44L411.85 1.44Q410.52 1.44 409.18 1.13L409.18 1.13L409.18 1.13Q407.85 0.82 406.77 0L406.77 0L406.77 0Q405.70-0.82 405.03-2.23L405.03-2.23L405.03-2.23Q404.36-3.64 404.36-5.79L404.36-5.79L404.36-5.79Q404.36-8.31 405.21-10.89L405.21-10.89L405.21-10.89Q406.05-13.48 407.31-16.02L407.31-16.02L407.31-16.02Q408.57-18.56 410.05-20.94L410.05-20.94L410.05-20.94Q411.54-23.33 412.80-25.43L412.80-25.43L412.80-25.43Q414.05-27.53 414.90-29.25L414.90-29.25L414.90-29.25Q415.74-30.97 415.74-32.15L415.74-32.15L415.74-32.15Q415.74-34.25 413.69-34.25L413.69-34.25L413.69-34.25Q410.77-34.25 407.52-32.33L407.52-32.33L407.52-32.33Q404.26-30.40 400.98-27.33L400.98-27.33L400.98-27.33Q397.70-24.25 394.52-20.43L394.52-20.43L394.52-20.43Q391.34-16.61 388.57-12.82L388.57-12.82L380.78 1.85L376.11 0L376.11 0Q382.62-14.20 388.65-28.07L388.65-28.07L388.65-28.07Q394.67-41.94 401.03-55.47L401.03-55.47L401.03-55.47Q402.00-57.58 403.31-60.04L403.31-60.04L403.31-60.04Q404.62-62.50 406.13-64.96L406.13-64.96L406.13-64.96Q407.64-67.42 409.39-69.68L409.39-69.68L409.39-69.68Q411.13-71.93 412.98-73.67L412.98-73.67L412.98-73.67Q414.82-75.42 416.80-76.47L416.80-76.47L416.80-76.47Q418.77-77.52 420.77-77.52L420.77-77.52L420.77-77.52Q423.02-77.52 424.28-76.26L424.28-76.26L424.28-76.26Q425.54-75.01 425.54-72.70L425.54-72.70L425.54-72.70Q425.54-70.29 424.26-67.24L424.26-67.24L424.26-67.24Q422.97-64.19 420.82-60.81L420.82-60.81L420.82-60.81Q418.67-57.42 415.82-53.83L415.82-53.83L415.82-53.83Q412.98-50.24 409.82-46.71L409.82-46.71L409.82-46.71Q406.67-43.17 403.44-39.86L403.44-39.86L403.44-39.86Q400.21-36.56 397.24-33.74L397.24-33.74ZM421.03-74.80L421.03-74.80L421.03-74.80Q418.72-74.80 416.80-73.03L416.80-73.03L416.80-73.03Q414.87-71.26 412.62-67.21L412.62-67.21L412.62-67.21Q410.36-63.16 407.44-56.65L407.44-56.65L407.44-56.65Q404.52-50.14 400.31-40.66L400.31-40.66L400.31-40.66Q405.95-46.14 410.18-51.30L410.18-51.30L410.18-51.30Q414.41-56.45 417.23-60.70L417.23-60.70L417.23-60.70Q420.05-64.96 421.46-68.11L421.46-68.11L421.46-68.11Q422.87-71.26 422.87-72.80L422.87-72.80L422.87-72.80Q422.87-73.73 422.36-74.26L422.36-74.26L422.36-74.26Q421.85-74.80 421.03-74.80ZM431.95-11.69L431.95-11.69L431.95-11.69Q431.84-11.07 431.79-10.46L431.79-10.46L431.79-10.46Q431.74-9.84 431.74-9.23L431.74-9.23L431.74-9.23Q431.74-7.38 432.28-5.72L432.28-5.72L432.28-5.72Q432.82-4.05 433.87-2.79L433.87-2.79L433.87-2.79Q434.92-1.54 436.48-0.82L436.48-0.82L436.48-0.82Q438.05-0.10 440.05-0.10L440.05-0.10L440.05-0.10Q446.76-0.10 453.02-4.67L453.02-4.67L453.02-4.67Q459.27-9.23 465.48-19.12L465.48-19.12L467.22-17.59L467.22-17.59Q463.84-11.95 460.35-8.07L460.35-8.07L460.35-8.07Q456.86-4.20 453.40-1.79L453.40-1.79L453.40-1.79Q449.94 0.62 446.61 1.69L446.61 1.69L446.61 1.69Q443.28 2.77 440.25 2.77L440.25 2.77L440.25 2.77Q438.05 2.77 435.59 2.15L435.59 2.15L435.59 2.15Q433.13 1.54 431.05 0.10L431.05 0.10L431.05 0.10Q428.97-1.33 427.61-3.74L427.61-3.74L427.61-3.74Q426.25-6.15 426.25-9.74L426.25-9.74L426.25-9.74Q426.25-13.59 427.56-17.15L427.56-17.15L427.56-17.15Q428.87-20.71 430.97-23.79L430.97-23.79L430.97-23.79Q433.07-26.87 435.79-29.40L435.79-29.40L435.79-29.40Q438.51-31.94 441.30-33.74L441.30-33.74L441.30-33.74Q444.10-35.53 446.76-36.53L446.76-36.53L446.76-36.53Q449.43-37.53 451.48-37.53L451.48-37.53L451.48-37.53Q452.81-37.53 454.20-37.12L454.20-37.12L454.20-37.12Q455.58-36.71 456.68-35.84L456.68-35.84L456.68-35.84Q457.79-34.97 458.48-33.53L458.48-33.53L458.48-33.53Q459.17-32.09 459.17-30.10L459.17-30.10L459.17-30.10Q459.17-27.38 457.91-24.99L457.91-24.99L457.91-24.99Q456.66-22.61 454.56-20.58L454.56-20.58L454.56-20.58Q452.45-18.56 449.69-16.94L449.69-16.94L449.69-16.94Q446.92-15.33 443.89-14.20L443.89-14.20L443.89-14.20Q440.87-13.07 437.79-12.41L437.79-12.41L437.79-12.41Q434.71-11.74 431.95-11.69ZM432.36-13.89L432.36-13.89L432.36-13.89Q435.79-14.25 438.82-15.33L438.82-15.33L438.82-15.33Q441.84-16.41 444.35-17.97L444.35-17.97L444.35-17.97Q446.87-19.53 448.84-21.38L448.84-21.38L448.84-21.38Q450.81-23.23 452.15-25.12L452.15-25.12L452.15-25.12Q453.48-27.02 454.20-28.76L454.20-28.76L454.20-28.76Q454.91-30.51 454.91-31.89L454.91-31.89L454.91-31.89Q454.91-33.27 454.17-34.09L454.17-34.09L454.17-34.09Q453.43-34.91 452.40-34.91L452.40-34.91L452.40-34.91Q450.15-34.91 447.33-33.30L447.33-33.30L447.33-33.30Q444.51-31.68 441.69-28.84L441.69-28.84L441.69-28.84Q438.87-25.99 436.38-22.15L436.38-22.15L436.38-22.15Q433.89-18.30 432.36-13.89ZM481.93-40.25L481.93-40.25L481.93-40.25Q481.68-39.79 481.27-39.25L481.27-39.25L481.27-39.25Q480.86-38.71 480.47-38.02L480.47-38.02L480.47-38.02Q480.09-37.32 479.81-36.40L479.81-36.40L479.81-36.40Q479.52-35.48 479.52-34.20L479.52-34.20L479.52-34.20Q479.52-33.12 480.06-31.27L480.06-31.27L480.06-31.27Q480.60-29.43 481.22-27.04L481.22-27.04L481.22-27.04Q481.83-24.66 482.37-21.87L482.37-21.87L482.37-21.87Q482.91-19.07 482.91-16.10L482.91-16.10L482.91-16.10Q482.91-11.74 481.73-8.41L481.73-8.41L481.73-8.41Q480.55-5.08 478.60-2.72L478.60-2.72L478.60-2.72Q482.60-4.87 486.45-8.90L486.45-8.90L486.45-8.90Q490.29-12.92 494.19-19.12L494.19-19.12L495.93-17.59L495.93-17.59Q493.73-13.95 490.93-10.38L490.93-10.38L490.93-10.38Q488.14-6.82 484.80-3.97L484.80-3.97L484.80-3.97Q481.47-1.13 477.63 0.64L477.63 0.64L477.63 0.64Q473.78 2.41 469.48 2.41L469.48 2.41L469.48 2.41Q465.63 2.41 462.99 0.59L462.99 0.59L462.99 0.59Q460.35-1.23 459.73-4.87L459.73-4.87L461.58-5.23L461.58-5.23Q461.58-4.92 461.86-4.23L461.86-4.23L461.86-4.23Q462.14-3.54 462.76-2.87L462.76-2.87L462.76-2.87Q463.37-2.20 464.43-1.69L464.43-1.69L464.43-1.69Q465.48-1.18 467.01-1.18L467.01-1.18L467.01-1.18Q469.06-1.18 470.65-2.13L470.65-2.13L470.65-2.13Q472.24-3.08 473.42-4.61L473.42-4.61L473.42-4.61Q474.60-6.15 475.42-8.13L475.42-8.13L475.42-8.13Q476.24-10.10 476.73-12.20L476.73-12.20L476.73-12.20Q477.22-14.30 477.42-16.30L477.42-16.30L477.42-16.30Q477.63-18.30 477.63-19.94L477.63-19.94L477.63-19.94Q477.63-21.58 477.50-23.58L477.50-23.58L477.50-23.58Q477.37-25.58 477.22-27.40L477.22-27.40L477.22-27.40Q477.06-29.22 476.93-30.58L476.93-30.58L476.93-30.58Q476.81-31.94 476.81-32.35L476.81-32.35L476.81-32.45L476.81-32.45Q476.14-31.74 475.22-30.35L475.22-30.35L475.22-30.35Q474.29-28.97 473.24-27.33L473.24-27.33L473.24-27.33Q472.19-25.69 471.14-23.99L471.14-23.99L471.14-23.99Q470.09-22.30 469.24-20.92L469.24-20.92L469.24-20.92Q468.40-19.53 467.86-18.64L467.86-18.64L467.86-18.64Q467.32-17.74 467.32-17.69L467.32-17.69L465.48-19.12L465.48-19.12Q465.53-19.17 466.76-21.33L466.76-21.33L466.76-21.33Q467.99-23.48 470.01-26.79L470.01-26.79L470.01-26.79Q472.04-30.10 474.60-34.12L474.60-34.12L474.60-34.12Q477.17-38.14 479.88-41.94L479.88-41.94L481.93-40.25ZM517.21-45.48L517.21-45.48L517.21-45.48Q517.21-44.45 516.69-43.35L516.69-43.35L516.69-43.35Q516.18-42.25 515.39-41.37L515.39-41.37L515.39-41.37Q514.59-40.50 513.62-39.94L513.62-39.94L513.62-39.94Q512.64-39.38 511.67-39.38L511.67-39.38L511.67-39.38Q510.80-39.38 510.34-40.02L510.34-40.02L510.34-40.02Q509.88-40.66 509.88-41.58L509.88-41.58L509.88-41.58Q509.88-42.40 510.18-43.53L510.18-43.53L510.18-43.53Q510.49-44.66 511.11-45.66L511.11-45.66L511.11-45.66Q511.72-46.66 512.59-47.37L512.59-47.37L512.59-47.37Q513.46-48.09 514.59-48.09L514.59-48.09L514.59-48.09Q515.67-48.09 516.44-47.27L516.44-47.27L516.44-47.27Q517.21-46.45 517.21-45.48ZM505.98-34.81L507.62-34.09L507.62-34.09Q506.95-32.76 505.75-30.58L505.75-30.58L505.75-30.58Q504.54-28.40 503.16-25.81L503.16-25.81L503.16-25.81Q501.77-23.23 500.34-20.38L500.34-20.38L500.34-20.38Q498.90-17.53 497.75-14.84L497.75-14.84L497.75-14.84Q496.60-12.15 495.88-9.79L495.88-9.79L495.88-9.79Q495.16-7.43 495.16-5.79L495.16-5.79L495.16-5.79Q495.16-4.31 495.78-3.77L495.78-3.77L495.78-3.77Q496.39-3.23 497.52-3.23L497.52-3.23L497.52-3.23Q499.62-3.23 501.62-4.61L501.62-4.61L501.62-4.61Q503.62-6.00 505.59-8.23L505.59-8.23L505.59-8.23Q507.57-10.46 509.47-13.33L509.47-13.33L509.47-13.33Q511.36-16.20 513.26-19.12L513.26-19.12L515.10-17.69L515.10-17.69Q513.62-15.02 511.75-12.00L511.75-12.00L511.75-12.00Q509.88-8.97 507.57-6.38L507.57-6.38L507.57-6.38Q505.26-3.79 502.49-2.10L502.49-2.10L502.49-2.10Q499.72-0.41 496.44-0.41L496.44-0.41L496.44-0.41Q493.37-0.41 491.73-2.26L491.73-2.26L491.73-2.26Q490.09-4.10 490.09-7.02L490.09-7.02L490.09-7.02Q490.09-10.46 491.67-14.20L491.67-14.20L491.67-14.20Q493.26-17.94 495.65-21.61L495.65-21.61L495.65-21.61Q498.03-25.28 500.83-28.66L500.83-28.66L500.83-28.66Q503.62-32.04 505.98-34.81L505.98-34.81Z" fill="url(#editing-gradient-gradient)"/>
    </g>
  </g>
  <style>text {
  font-size: 64px;
  font-family: Arial Black;
  dominant-baseline: central;
  text-anchor: middle;
}</style>
</svg>